<svg width="429" height="100" viewBox="0 0 429 100" fill="none" xmlns="http://www.w3.org/2000/svg">
<path d="M0 96.96C0 98.0646 0.895431 98.96 2 98.96H40.604C47.149 98.96 52.8213 97.8493 57.621 95.628C62.4603 93.367 66.189 90.154 68.807 85.989C71.4647 81.7843 72.7935 76.7665 72.7935 70.9355C72.7935 64.2318 71.0085 58.8173 67.4385 54.692C65.1096 52.0008 63.3822 49.9511 60.5905 48.5429C58.8839 47.682 58.4293 44.8458 59.9293 43.6611C64.7141 39.8821 67.1065 35.074 67.1065 27.418C67.1065 19.1673 63.4092 10.9992 58.0145 6.9135C52.6595 2.82783 46.2815 0.784998 36.8805 0.784998H2C0.895431 0.784998 0 1.68043 0 2.785V96.96ZM25.967 39.9245C24.8624 39.9245 23.967 39.0291 23.967 37.9245V24.4565C23.967 23.3519 24.8624 22.4565 25.967 22.4565H26.347C40.5385 22.4565 42.913 24.8083 42.913 31.512C42.913 38.4537 35.391 39.9245 26.347 39.9245H25.967ZM25.967 78.229C24.8624 78.229 23.967 77.3336 23.967 76.229V61.6785C23.967 60.5739 24.8624 59.6785 25.967 59.6785H30.512C35.7877 59.6785 39.794 59.6702 42.531 61.6535C45.268 63.6368 46.6365 66.4928 46.6365 70.2215C46.6365 77.5598 41.2617 78.229 30.512 78.229H25.967Z" fill="#EB5757"/>
<path d="M72.8032 96.1025C72.1734 97.4295 73.1412 98.96 74.61 98.96H95.7136C95.9944 98.96 96.2721 98.9009 96.5285 98.7865L103.22 95.801L135.853 83.4138C136.78 83.0618 137.825 83.4426 138.309 84.3087L145.916 97.9349C146.269 98.5678 146.937 98.96 147.662 98.96H168.972C170.452 98.96 171.42 97.4083 170.768 96.0794L124.587 1.90443C124.251 1.21926 123.555 0.784998 122.792 0.784998H119.303C118.531 0.784998 117.827 1.22973 117.496 1.92751L72.8032 96.1025ZM114.298 69.5076C112.61 70.2 110.952 68.4563 111.729 66.8057L119.644 49.9867C120.378 48.4257 122.612 48.4648 123.292 50.0504L128.238 61.5929C128.678 62.6193 128.192 63.8072 127.159 64.231L114.298 69.5076Z" fill="#EB5757"/>
<path d="M204.726 99.864C212.302 99.864 218.887 99.6542 224.48 97.2345C230.073 94.7752 234.397 91.2448 237.451 86.6435C240.545 82.0422 242.092 76.5087 242.092 70.043C242.092 64.45 239.902 59.8288 237.522 56.1795C235.182 52.4905 231.731 49.2775 227.169 46.5405C222.647 43.8035 217.133 41.0467 210.628 38.27C206.384 36.485 205.21 34.9975 203.108 33.8075C201.006 32.5778 199.954 30.7135 199.954 28.2145C199.954 25.9127 200.806 24.8865 202.508 23.4962C202.745 23.303 203.025 23.1688 203.325 23.1119C208.689 22.0939 213.774 23.9248 217.737 25.3516C217.937 25.4236 218.124 25.5275 218.293 25.6567C220.707 27.5048 222.506 28.3333 224.591 29.5975C225.451 30.1196 226.573 29.9837 227.24 29.2298L239.89 14.9368C240.675 14.0508 240.533 12.6696 239.615 11.9233C237.023 9.81628 233.384 6.68849 230.727 5.5815C227.395 4.19316 223.885 2.0825 220.196 1.2495C216.547 0.416501 210.997 0 207.546 0C200.921 0 195.11 1.428 190.112 4.284C185.154 7.10033 182.306 9.78933 179.569 14.351C176.832 18.873 175.464 23.6727 175.464 28.75C175.464 34.7397 177.288 40.7773 180.938 44.863C184.587 48.909 189.148 52.1815 194.622 54.6805C199.501 56.9018 203.508 58.8058 206.641 60.3925C209.815 61.9792 212.155 62.6055 213.663 64.2715C215.17 65.9375 216.923 68.02 216.923 70.519C216.923 73.5733 214.872 74.8542 212.77 76.3615C210.707 77.8688 208.911 77.6225 205.38 77.6225C197.702 77.6225 193.036 72.5533 187.554 68.1406C186.718 67.4677 185.503 67.617 184.825 68.4488L173.411 82.4501C172.726 83.2904 172.837 84.5254 173.66 85.2302C183.492 93.6447 191.54 99.864 204.726 99.864Z" fill="#EB5757"/>
<path d="M251.038 96.96C251.038 98.0646 251.934 98.96 253.038 98.96H314.159C315.263 98.96 316.159 98.0646 316.159 96.96V79.849C316.159 78.7444 315.263 77.849 314.159 77.849H276.66C275.555 77.849 274.66 76.9536 274.66 75.849V64.809C274.66 63.7044 275.555 62.809 276.66 62.809H296.731C297.835 62.809 298.731 61.9136 298.731 60.809V41.698C298.731 40.5934 297.835 39.698 296.731 39.698H277.66C276.555 39.698 275.66 38.8026 275.66 37.698V28.896C275.66 27.7914 276.555 26.896 277.66 26.896H314.159C315.263 26.896 316.159 26.0006 316.159 24.896V2.785C316.159 1.68043 315.263 0.784998 314.159 0.784998C312.152 0.784998 310.035 0.784998 309.072 0.784998C308.721 0.784998 308.379 0.877306 308.075 1.05265L252.039 33.3828C251.42 33.7399 251.038 34.4004 251.038 35.1151V96.96Z" fill="#EB5757"/>
<path d="M337.864 26.18C341.354 26.18 344.329 24.9305 346.789 22.4315C349.288 19.9325 350.537 16.9377 350.537 13.447C350.537 9.95633 349.288 6.98133 346.789 4.522C344.329 2.023 341.354 0.773499 337.864 0.773499C334.373 0.773499 331.378 2.023 328.879 4.522C326.42 6.98133 325.19 9.95633 325.19 13.447C325.19 16.9377 326.42 19.9325 328.879 22.4315C331.378 24.9305 334.373 26.18 337.864 26.18ZM327.035 96.96C327.035 98.6169 328.378 99.96 330.035 99.96H345.752C347.409 99.96 348.752 98.6169 348.752 96.96V42.032C348.752 40.3751 347.409 39.032 345.752 39.032H330.034C328.378 39.032 327.035 40.3751 327.035 42.032V96.96Z" fill="#EB5757"/>
<path d="M382.754 96.96C382.754 98.6168 384.098 99.96 385.754 99.96H402.721C404.378 99.96 405.721 98.6169 405.721 96.96V24.9555C405.721 23.2986 407.065 21.9555 408.721 21.9555H425.748C427.405 21.9555 428.748 20.6123 428.748 18.9555V4.785C428.748 3.12815 427.405 1.785 425.748 1.785H362.728C361.071 1.785 359.728 3.12814 359.728 4.785V18.9555C359.728 20.6123 361.071 21.9555 362.728 21.9555H379.754C381.411 21.9555 382.754 23.2986 382.754 24.9555V96.96Z" fill="#EB5757"/>
</svg>
