<svg width="132" height="132" viewBox="0 0 132 132" fill="none" xmlns="http://www.w3.org/2000/svg">
  <rect width="132" height="132" rx="3" fill="#FFCC00" />
  <g filter="url(#filter0_d_102_2)">
    <path d="M30 113.175C30 114.28 30.8954 115.175 32 115.175H70.604C77.149 115.175 82.8213 114.064 87.621 111.843C92.4603 109.582 96.189 106.369 98.807 102.204C101.465 97.9993 102.794 92.9815 102.794 87.1505C102.794 80.4468 101.009 75.0323 97.4385 70.907C95.1096 68.2158 93.3822 66.1661 90.5905 64.7579C88.8839 63.897 88.4293 61.0608 89.9293 59.8761C94.7141 56.0971 97.1065 51.289 97.1065 43.633C97.1065 35.3823 93.4092 27.2142 88.0145 23.1285C82.6595 19.0428 76.2815 17 66.8805 17H32C30.8954 17 30 17.8954 30 19V113.175ZM55.967 56.1395C54.8624 56.1395 53.967 55.2441 53.967 54.1395V40.6715C53.967 39.5669 54.8624 38.6715 55.967 38.6715H56.347C70.5385 38.6715 72.913 41.0233 72.913 47.727C72.913 54.6687 65.391 56.1395 56.347 56.1395H55.967ZM55.967 94.444C54.8624 94.444 53.967 93.5486 53.967 92.444V77.8935C53.967 76.7889 54.8624 75.8935 55.967 75.8935H60.512C65.7877 75.8935 69.794 75.8852 72.531 77.8685C75.268 79.8518 76.6365 82.7078 76.6365 86.4365C76.6365 93.7748 71.2617 94.444 60.512 94.444H55.967Z" fill="white" />
  </g>
  <defs>
    <filter id="filter0_d_102_2" x="30" y="17" width="76.7935" height="102.175" filterUnits="userSpaceOnUse" color-interpolation-filters="sRGB">
      <feFlood flood-opacity="0" result="BackgroundImageFix" />
      <feColorMatrix in="SourceAlpha" type="matrix" values="0 0 0 0 0 0 0 0 0 0 0 0 0 0 0 0 0 0 127 0" result="hardAlpha" />
      <feOffset dx="4" dy="4" />
      <feComposite in2="hardAlpha" operator="out" />
      <feColorMatrix type="matrix" values="0 0 0 0 0 0 0 0 0 0 0 0 0 0 0 0 0 0 0.25 0" />
      <feBlend mode="normal" in2="BackgroundImageFix" result="effect1_dropShadow_102_2" />
      <feBlend mode="normal" in="SourceGraphic" in2="effect1_dropShadow_102_2" result="shape" />
    </filter>
  </defs>
</svg>