<svg width="118" height="43" viewBox="0 0 118 43" fill="none" xmlns="http://www.w3.org/2000/svg">
  <path d="M0.369476 39.8959H1.03881V36.5492H5.00638V39.8959H5.67131V32.6301H5.00638V35.9591H1.03881V32.6301H0.369476V39.8959Z" fill="#2D3436" />
  <path d="M9.96117 40.0368C10.4103 40.0368 10.8184 39.9399 11.1853 39.7462C11.5552 39.5524 11.8473 39.2809 12.0616 38.9315L11.5861 38.6761C11.2103 39.228 10.6775 39.504 9.98759 39.504C9.62944 39.504 9.31091 39.4276 9.03203 39.275C8.75314 39.1194 8.53443 38.9066 8.3759 38.6365C8.22031 38.3635 8.14251 38.0523 8.14251 37.7029H12.2026C12.2084 37.6706 12.2114 37.6428 12.2114 37.6193C12.2143 37.5958 12.2158 37.5679 12.2158 37.5356C12.204 37.0864 12.0954 36.6901 11.8899 36.3466C11.6873 36.0002 11.4114 35.7302 11.062 35.5364C10.7156 35.3426 10.3193 35.2458 9.8731 35.2458C9.54724 35.2458 9.24046 35.3074 8.95276 35.4307C8.668 35.554 8.417 35.7258 8.19976 35.9459C7.98252 36.1661 7.81225 36.423 7.68895 36.7165C7.56565 37.0072 7.504 37.3213 7.504 37.6589C7.504 38.1081 7.60969 38.5132 7.82106 38.8743C8.03536 39.2324 8.32746 39.5157 8.69736 39.7241C9.06725 39.9326 9.48852 40.0368 9.96117 40.0368ZM8.17774 37.2185C8.21591 36.9338 8.31278 36.6843 8.46837 36.4699C8.6269 36.2527 8.828 36.0839 9.07166 35.9635C9.31532 35.8402 9.5854 35.7786 9.8819 35.7786C10.1725 35.7786 10.4382 35.8402 10.6789 35.9635C10.9197 36.0868 11.1193 36.2571 11.2778 36.4743C11.4363 36.6916 11.5347 36.9397 11.5729 37.2185H8.17774Z" fill="#2D3436" />
  <path d="M13.7571 39.8959H14.4001V36.9587C14.4001 36.7474 14.4514 36.5521 14.5542 36.3731C14.6599 36.1911 14.811 36.0457 15.0077 35.9371C15.2044 35.8256 15.4408 35.7698 15.7167 35.7698C16.1101 35.7698 16.4154 35.8931 16.6326 36.1397C16.8528 36.3863 16.9629 36.7415 16.9629 37.2053V39.8959H17.6058V37.082C17.6058 36.5008 17.4546 36.0501 17.1523 35.7302C16.8528 35.4072 16.4418 35.2458 15.9193 35.2458C15.5464 35.2458 15.2294 35.3192 14.9681 35.4659C14.7098 35.6127 14.5204 35.7918 14.4001 36.0032V35.3867H13.7571V39.8959Z" fill="#2D3436" />
  <path d="M19.4604 39.8959H20.1033V37.7558L22.0276 39.8959H22.8511L20.689 37.5092L22.7454 35.3867H21.9043L20.1033 37.2318V32.3218H19.4604V39.8959Z" fill="#2D3436" />
  <path d="M24.6722 34.484C24.7897 34.484 24.8895 34.4429 24.9717 34.3607C25.0539 34.2785 25.095 34.1786 25.095 34.0612C25.095 33.9438 25.0539 33.8454 24.9717 33.7662C24.8895 33.684 24.7897 33.6429 24.6722 33.6429C24.5548 33.6429 24.455 33.684 24.3728 33.7662C24.2935 33.8454 24.2539 33.9438 24.2539 34.0612C24.2539 34.1786 24.2935 34.2785 24.3728 34.3607C24.455 34.4429 24.5548 34.484 24.6722 34.484ZM24.3508 39.8959H24.9937V35.3867H24.3508V39.8959Z" fill="#2D3436" />
  <path d="M26.9364 39.8959H27.5793V32.3218H26.9364V39.8959Z" fill="#2D3436" />
  <path d="M31.6709 40.0368C32.1406 40.0368 32.5634 39.9355 32.9391 39.733C33.3179 39.5304 33.6173 39.2486 33.8375 38.8875C34.0576 38.5264 34.1677 38.111 34.1677 37.6413C34.1677 37.1686 34.0576 36.7532 33.8375 36.3951C33.6173 36.034 33.3179 35.7522 32.9391 35.5496C32.5634 35.347 32.1406 35.2458 31.6709 35.2458C31.2012 35.2458 30.777 35.347 30.3983 35.5496C30.0225 35.7522 29.7246 36.034 29.5044 36.3951C29.2842 36.7532 29.1741 37.1686 29.1741 37.6413C29.1741 38.111 29.2842 38.5264 29.5044 38.8875C29.7246 39.2486 30.0225 39.5304 30.3983 39.733C30.777 39.9355 31.2012 40.0368 31.6709 40.0368ZM31.6709 39.4643C31.3187 39.4643 31.0045 39.3865 30.7286 39.231C30.4526 39.0754 30.2354 38.8611 30.0769 38.588C29.9183 38.3121 29.8391 37.9965 29.8391 37.6413C29.8391 37.2861 29.9183 36.9719 30.0769 36.6989C30.2354 36.423 30.4526 36.2072 30.7286 36.0516C31.0045 35.896 31.3187 35.8182 31.6709 35.8182C32.0232 35.8182 32.3373 35.896 32.6133 36.0516C32.8892 36.2072 33.1065 36.423 33.265 36.6989C33.4235 36.9719 33.5028 37.2861 33.5028 37.6413C33.5028 37.9965 33.4235 38.3121 33.265 38.588C33.1065 38.8611 32.8892 39.0754 32.6133 39.231C32.3373 39.3865 32.0232 39.4643 31.6709 39.4643ZM32.7102 33.9952C32.8188 33.9952 32.9113 33.957 32.9876 33.8807C33.0639 33.8043 33.1021 33.7119 33.1021 33.6033C33.1021 33.4946 33.0639 33.4022 32.9876 33.3258C32.9113 33.2495 32.8188 33.2113 32.7102 33.2113C32.6015 33.2113 32.5091 33.2495 32.4327 33.3258C32.3564 33.4022 32.3182 33.4946 32.3182 33.6033C32.3182 33.7119 32.3564 33.8043 32.4327 33.8807C32.5091 33.957 32.6015 33.9952 32.7102 33.9952ZM30.6317 33.9952C30.7403 33.9952 30.8328 33.957 30.9091 33.8807C30.9855 33.8043 31.0236 33.7119 31.0236 33.6033C31.0236 33.4946 30.9855 33.4022 30.9091 33.3258C30.8328 33.2495 30.7403 33.2113 30.6317 33.2113C30.5231 33.2113 30.4306 33.2495 30.3543 33.3258C30.278 33.4022 30.2398 33.4946 30.2398 33.6033C30.2398 33.7119 30.278 33.8043 30.3543 33.8807C30.4306 33.957 30.5231 33.9952 30.6317 33.9952Z" fill="#2D3436" />
  <path d="M36.934 40.0368C37.4243 40.0368 37.8235 39.9047 38.1318 39.6405C38.443 39.3763 38.5986 39.0181 38.5986 38.566C38.5986 38.3018 38.5443 38.0934 38.4356 37.9407C38.327 37.7851 38.1744 37.6574 37.9777 37.5576C37.781 37.4549 37.552 37.3551 37.2907 37.2582C37.1087 37.1877 36.9384 37.1173 36.7799 37.0468C36.6243 36.9764 36.4981 36.8927 36.4012 36.7958C36.3043 36.696 36.2559 36.5698 36.2559 36.4171C36.2559 36.2087 36.3322 36.0399 36.4849 35.9107C36.6405 35.7815 36.8416 35.7169 37.0882 35.7169C37.4903 35.7169 37.8265 35.8946 38.0966 36.2498L38.3916 35.8755C38.2155 35.6758 38.0158 35.5217 37.7927 35.4131C37.5725 35.3045 37.3362 35.2502 37.0838 35.2502C36.8078 35.2502 36.5612 35.303 36.344 35.4087C36.1267 35.5114 35.9565 35.6538 35.8332 35.8358C35.7099 36.0149 35.6482 36.2204 35.6482 36.4523C35.6482 36.6813 35.7054 36.8707 35.8199 37.0204C35.9374 37.1672 36.0856 37.289 36.2647 37.3859C36.4438 37.4828 36.6287 37.5694 36.8195 37.6457C37.0632 37.7396 37.2687 37.8233 37.436 37.8967C37.6034 37.9701 37.7296 38.0581 37.8147 38.1609C37.9028 38.2636 37.9468 38.406 37.9468 38.588C37.9468 38.8816 37.847 39.1135 37.6474 39.2838C37.4478 39.4541 37.2085 39.5392 36.9296 39.5392C36.6537 39.5392 36.4027 39.4599 36.1766 39.3014C35.9506 39.1399 35.7671 38.9154 35.6262 38.6277L35.2827 38.9976C35.4412 39.3293 35.6629 39.5862 35.9476 39.7682C36.2324 39.9473 36.5612 40.0368 36.934 40.0368Z" fill="#2D3436" />
  <path d="M41.2127 40.0368C41.5004 40.0368 41.7529 39.9693 41.9701 39.8342L41.8072 39.3234C41.678 39.4203 41.5254 39.4687 41.3493 39.4687C40.9764 39.4687 40.79 39.2119 40.79 38.6981V35.8711H41.9129V35.3867H40.79V33.7001H40.1471V35.3867H39.6891V35.8711H40.1471V38.7334C40.1471 39.1473 40.2396 39.4687 40.4245 39.6977C40.6124 39.9238 40.8751 40.0368 41.2127 40.0368Z" fill="#2D3436" />
  <path d="M45.5726 40.0368C46.0424 40.0368 46.4651 39.9355 46.8409 39.733C47.2196 39.5304 47.519 39.2486 47.7392 38.8875C47.9593 38.5264 48.0694 38.111 48.0694 37.6413C48.0694 37.1686 47.9593 36.7532 47.7392 36.3951C47.519 36.034 47.2196 35.7522 46.8409 35.5496C46.4651 35.347 46.0424 35.2458 45.5726 35.2458C45.1029 35.2458 44.6787 35.347 44.3 35.5496C43.9243 35.7522 43.6263 36.034 43.4061 36.3951C43.1859 36.7532 43.0758 37.1686 43.0758 37.6413C43.0758 38.111 43.1859 38.5264 43.4061 38.8875C43.6263 39.2486 43.9243 39.5304 44.3 39.733C44.6787 39.9355 45.1029 40.0368 45.5726 40.0368ZM45.5726 39.4643C45.2204 39.4643 44.9062 39.3865 44.6303 39.231C44.3543 39.0754 44.1371 38.8611 43.9786 38.588C43.82 38.3121 43.7408 37.9965 43.7408 37.6413C43.7408 37.2861 43.82 36.9719 43.9786 36.6989C44.1371 36.423 44.3543 36.2072 44.6303 36.0516C44.9062 35.896 45.2204 35.8182 45.5726 35.8182C45.9249 35.8182 46.239 35.896 46.515 36.0516C46.7909 36.2072 47.0082 36.423 47.1667 36.6989C47.3252 36.9719 47.4045 37.2861 47.4045 37.6413C47.4045 37.9965 47.3252 38.3121 47.1667 38.588C47.0082 38.8611 46.7909 39.0754 46.515 39.231C46.239 39.3865 45.9249 39.4643 45.5726 39.4643ZM46.6119 33.9952C46.7205 33.9952 46.813 33.957 46.8893 33.8807C46.9656 33.8043 47.0038 33.7119 47.0038 33.6033C47.0038 33.4946 46.9656 33.4022 46.8893 33.3258C46.813 33.2495 46.7205 33.2113 46.6119 33.2113C46.5033 33.2113 46.4108 33.2495 46.3344 33.3258C46.2581 33.4022 46.22 33.4946 46.22 33.6033C46.22 33.7119 46.2581 33.8043 46.3344 33.8807C46.4108 33.957 46.5033 33.9952 46.6119 33.9952ZM44.5334 33.9952C44.642 33.9952 44.7345 33.957 44.8108 33.8807C44.8872 33.8043 44.9253 33.7119 44.9253 33.6033C44.9253 33.4946 44.8872 33.4022 44.8108 33.3258C44.7345 33.2495 44.642 33.2113 44.5334 33.2113C44.4248 33.2113 44.3323 33.2495 44.256 33.3258C44.1797 33.4022 44.1415 33.4946 44.1415 33.6033C44.1415 33.7119 44.1797 33.8043 44.256 33.8807C44.3323 33.957 44.4248 33.9952 44.5334 33.9952Z" fill="#2D3436" />
  <path d="M49.6644 42.1857H50.3073V38.9447C50.4981 39.2853 50.7565 39.5524 51.0823 39.7462C51.4111 39.9399 51.7737 40.0368 52.17 40.0368C52.6016 40.0368 52.9861 39.9326 53.3237 39.7241C53.6643 39.5157 53.9314 39.231 54.1252 38.8699C54.3219 38.5088 54.4202 38.0992 54.4202 37.6413C54.4202 37.1804 54.3219 36.7709 54.1252 36.4127C53.9285 36.0516 53.6599 35.7669 53.3193 35.5584C52.9817 35.35 52.5957 35.2458 52.1612 35.2458C51.7619 35.2458 51.3979 35.3412 51.0691 35.532C50.7433 35.7199 50.4893 35.9826 50.3073 36.3202V35.3867H49.6644V42.1857ZM52.0203 39.4776C51.6827 39.4776 51.3832 39.3998 51.122 39.2442C50.8607 39.0856 50.6552 38.8684 50.5055 38.5924C50.3558 38.3136 50.2809 37.9965 50.2809 37.6413C50.2809 37.2831 50.3558 36.9661 50.5055 36.6901C50.6552 36.4142 50.8607 36.1984 51.122 36.0428C51.3832 35.8843 51.6827 35.805 52.0203 35.805C52.3579 35.805 52.6559 35.8843 52.9142 36.0428C53.1755 36.1984 53.381 36.4156 53.5307 36.6945C53.6804 36.9705 53.7553 37.2875 53.7553 37.6457C53.7553 38.0009 53.6804 38.3165 53.5307 38.5924C53.381 38.8684 53.1755 39.0856 52.9142 39.2442C52.6559 39.3998 52.3579 39.4776 52.0203 39.4776Z" fill="#2D3436" />
  <path d="M57.9628 40.0368C58.3621 40.0368 58.7246 39.9399 59.0505 39.7462C59.3764 39.5524 59.6362 39.2853 59.8299 38.9447V39.8959H60.4728V35.3867H59.8299V36.3246C59.6597 35.987 59.4072 35.7228 59.0725 35.532C58.7408 35.3412 58.3709 35.2458 57.9628 35.2458C57.5342 35.2458 57.1497 35.35 56.8091 35.5584C56.4715 35.7639 56.2044 36.0472 56.0077 36.4083C55.8139 36.7694 55.717 37.1789 55.717 37.6369C55.717 38.1007 55.8154 38.5132 56.0121 38.8743C56.2117 39.2354 56.4803 39.5201 56.8179 39.7286C57.1555 39.934 57.5372 40.0368 57.9628 40.0368ZM58.1214 39.4776C57.7867 39.4776 57.4873 39.3983 57.223 39.2398C56.9618 39.0812 56.7563 38.864 56.6065 38.588C56.4568 38.3121 56.382 37.9965 56.382 37.6413C56.382 37.2831 56.4568 36.9661 56.6065 36.6901C56.7563 36.4142 56.9618 36.1984 57.223 36.0428C57.4843 35.8843 57.7838 35.805 58.1214 35.805C58.459 35.805 58.7584 35.8843 59.0197 36.0428C59.281 36.1984 59.485 36.4142 59.6318 36.6901C59.7815 36.9661 59.8563 37.2831 59.8563 37.6413C59.8563 37.9965 59.7815 38.3136 59.6318 38.5924C59.482 38.8684 59.2766 39.0856 59.0153 39.2442C58.7569 39.3998 58.459 39.4776 58.1214 39.4776Z" fill="#2D3436" />
  <path d="M62.4126 39.8959H63.0555V32.3218H62.4126V39.8959Z" fill="#2D3436" />
  <path d="M66.4658 39.8959H66.8886L69.0815 35.3867H68.3285L66.6772 38.98L65.0303 35.3867H64.2773L66.4658 39.8959Z" fill="#2D3436" />
  <path d="M72.4409 40.0368C72.8901 40.0368 73.2981 39.9399 73.6651 39.7462C74.035 39.5524 74.3271 39.2809 74.5414 38.9315L74.0658 38.6761C73.69 39.228 73.1572 39.504 72.4673 39.504C72.1092 39.504 71.7907 39.4276 71.5118 39.275C71.2329 39.1194 71.0142 38.9066 70.8557 38.6365C70.7001 38.3635 70.6223 38.0523 70.6223 37.7029H74.6823C74.6882 37.6706 74.6911 37.6428 74.6911 37.6193C74.6941 37.5958 74.6955 37.5679 74.6955 37.5356C74.6838 37.0864 74.5752 36.6901 74.3697 36.3466C74.1671 36.0002 73.8911 35.7302 73.5418 35.5364C73.1954 35.3426 72.7991 35.2458 72.3529 35.2458C72.027 35.2458 71.7202 35.3074 71.4325 35.4307C71.1478 35.554 70.8968 35.7258 70.6795 35.9459C70.4623 36.1661 70.292 36.423 70.1687 36.7165C70.0454 37.0072 69.9838 37.3213 69.9838 37.6589C69.9838 38.1081 70.0894 38.5132 70.3008 38.8743C70.5151 39.2324 70.8072 39.5157 71.1771 39.7241C71.547 39.9326 71.9683 40.0368 72.4409 40.0368ZM70.6575 37.2185C70.6957 36.9338 70.7925 36.6843 70.9481 36.4699C71.1067 36.2527 71.3077 36.0839 71.5514 35.9635C71.7951 35.8402 72.0652 35.7786 72.3617 35.7786C72.6523 35.7786 72.918 35.8402 73.1587 35.9635C73.3994 36.0868 73.599 36.2571 73.7576 36.4743C73.9161 36.6916 74.0145 36.9397 74.0526 37.2185H70.6575Z" fill="#2D3436" />
  <path d="M76.2369 39.8959H76.8798V32.3218H76.2369V39.8959Z" fill="#2D3436" />
  <path d="M80.6412 40.0368C81.3252 40.0368 81.814 39.8841 82.1075 39.5788C82.4011 39.2706 82.5479 38.7539 82.5479 38.0288V35.3867H81.905V37.9143C81.905 38.4838 81.8081 38.8904 81.6143 39.1341C81.4235 39.3748 81.0991 39.4952 80.6412 39.4952C80.1861 39.4952 79.8617 39.3748 79.668 39.1341C79.4742 38.8904 79.3774 38.4838 79.3774 37.9143V35.3867H78.7344V38.0288C78.7344 38.7539 78.8812 39.2706 79.1748 39.5788C79.4684 39.8841 79.9572 40.0368 80.6412 40.0368Z" fill="#2D3436" />
  <path d="M85.4894 40.0368C85.7771 40.0368 86.0296 39.9693 86.2468 39.8342L86.0839 39.3234C85.9548 39.4203 85.8021 39.4687 85.626 39.4687C85.2531 39.4687 85.0667 39.2119 85.0667 38.6981V35.8711H86.1896V35.3867H85.0667V33.7001H84.4238V35.3867H83.9658V35.8711H84.4238V38.7334C84.4238 39.1473 84.5163 39.4687 84.7012 39.6977C84.8891 39.9238 85.1518 40.0368 85.4894 40.0368Z" fill="#2D3436" />
  <path d="M0 26.7618C0 27.0236 0.212216 27.2358 0.473997 27.2358H11.175C12.9763 27.2358 14.5375 26.9301 15.8585 26.3187C17.1903 25.6965 18.2165 24.8122 18.9371 23.6659C19.6685 22.5087 20.0342 21.1277 20.0342 19.5229C20.0342 17.6779 19.543 16.1877 18.5604 15.0523C17.8646 14.2483 17.3639 13.6523 16.4719 13.2644C16.0564 13.0837 15.9502 12.4224 16.3146 12.1532C17.7509 11.0922 18.4691 9.74655 18.4691 7.54598C18.4691 5.27523 17.4515 3.02719 15.9668 1.90273C14.4929 0.778276 12.7376 0.216047 10.1503 0.216047H0.473997C0.212216 0.216047 0 0.428263 0 0.690044V26.7618ZM7.0702 10.988C6.80841 10.988 6.5962 10.7758 6.5962 10.514V6.65448C6.5962 6.39269 6.80841 6.18048 7.0702 6.18048H7.25122C11.157 6.18048 11.8105 6.82775 11.8105 8.67273C11.8105 10.5832 9.74031 10.988 7.25122 10.988H7.0702ZM7.07019 21.5302C6.80841 21.5302 6.5962 21.318 6.5962 21.0562V16.8987C6.5962 16.6369 6.80841 16.4247 7.0702 16.4247H8.39751C9.84948 16.4247 10.9521 16.4224 11.7054 16.9683C12.4587 17.5141 12.8353 18.3002 12.8353 19.3264C12.8353 21.346 11.356 21.5302 8.39751 21.5302H7.07019Z" fill="#2D3436" />
  <path d="M19.9851 26.5585C19.8358 26.873 20.0652 27.2358 20.4133 27.2358H26.3586C26.4251 27.2358 26.4909 27.2218 26.5517 27.1946L28.4082 26.3664L37.4511 22.9337C37.6709 22.8503 37.9186 22.9406 38.0332 23.1458L40.1808 26.9928C40.2646 27.1428 40.4229 27.2358 40.5947 27.2358H46.6272C46.9779 27.2358 47.2072 26.868 47.0528 26.5531L34.268 0.481352C34.1883 0.318967 34.0233 0.216047 33.8424 0.216047H32.7863C32.6032 0.216047 32.4365 0.321449 32.3581 0.486821L19.9851 26.5585ZM31.2751 19.2045C30.8751 19.3686 30.4822 18.9554 30.6663 18.5641L33.0007 13.6034C33.1748 13.2335 33.7042 13.2427 33.8653 13.6185L35.3243 17.023C35.4286 17.2662 35.3134 17.5477 35.0686 17.6482L31.2751 19.2045Z" fill="#2D3436" />
  <path d="M56.3447 27.4846C58.4298 27.4846 60.2421 27.4268 61.7814 26.7609C63.3207 26.084 64.5107 25.1124 65.3513 23.846C66.2028 22.5796 66.6286 21.0567 66.6286 19.2772C66.6286 17.7379 66.0258 16.4661 65.3708 15.4617C64.7267 14.4464 63.7769 13.5622 62.5215 12.8089C61.2769 12.0556 59.7594 11.2969 57.969 10.5327C56.8009 10.0414 56.478 9.63201 55.8994 9.3045C55.3208 8.96607 55.0315 8.45297 55.0315 7.7652C55.0315 7.12557 55.2703 6.84384 55.748 6.45548C55.8042 6.40983 55.8707 6.37796 55.9417 6.36418C57.4297 6.07571 58.8406 6.58662 59.9372 6.98143C59.9846 6.9985 60.0289 7.02316 60.0689 7.05383C60.7603 7.58466 61.2681 7.81102 61.8693 8.18095C62.0725 8.30598 62.3383 8.27369 62.4964 8.09504L66.0786 4.04766C66.2645 3.83767 66.2304 3.51094 66.0123 3.33469C65.2958 2.75562 64.2547 1.85026 63.5008 1.53614C62.5838 1.15404 61.6176 0.573145 60.6023 0.343888C59.598 0.114629 58.0705 0 57.1207 0C55.2975 0 53.6982 0.393014 52.3226 1.17904C50.958 1.95415 50.1743 2.69422 49.421 3.94968C48.6677 5.19423 48.2911 6.51519 48.2911 7.91257C48.2911 9.56105 48.7933 11.2227 49.7976 12.3472C50.802 13.4607 52.0575 14.3614 53.564 15.0492C54.9068 15.6605 56.0094 16.1845 56.8719 16.6212C57.7452 17.0579 58.3893 17.2303 58.8042 17.6888C59.219 18.1473 59.7017 18.7205 59.7017 19.4082C59.7017 20.2489 59.1372 20.6014 58.5586 21.0162C57.9909 21.4311 57.4964 21.3633 56.5248 21.3633C54.3849 21.3633 53.0951 19.9326 51.5613 18.7077C51.3625 18.549 51.0746 18.5844 50.9139 18.7816L47.6792 22.7496C47.5169 22.9488 47.5431 23.2414 47.7382 23.4086C50.47 25.749 52.6904 27.4846 56.3447 27.4846Z" fill="#2D3436" />
  <path d="M69.0908 26.7618C69.0908 27.0236 69.303 27.2358 69.5648 27.2358H86.5392C86.8009 27.2358 87.0132 27.0236 87.0132 26.7618V21.8996C87.0132 21.6378 86.8009 21.4256 86.5392 21.4256H76.0659C75.8042 21.4256 75.5919 21.2134 75.5919 20.9516V17.7603C75.5919 17.4985 75.8042 17.2863 76.0659 17.2863H81.7426C82.0044 17.2863 82.2166 17.0741 82.2166 16.8123V11.3997C82.2166 11.1379 82.0044 10.9257 81.7426 10.9257H76.3412C76.0794 10.9257 75.8672 10.7135 75.8672 10.4517V7.87632C75.8672 7.61453 76.0794 7.40232 76.3412 7.40232H86.5392C86.8009 7.40232 87.0132 7.1901 87.0132 6.92832V0.690044C87.0132 0.428263 86.801 0.216047 86.5393 0.216047C85.9506 0.216047 85.3089 0.216047 85.0426 0.216047C84.9595 0.216047 84.8781 0.237924 84.806 0.279481L69.3279 9.20966C69.1812 9.29432 69.0908 9.45084 69.0908 9.62023V26.7618Z" fill="#2D3436" />
  <path d="M92.9868 7.20526C93.9475 7.20526 94.7663 6.86137 95.4431 6.1736C96.1309 5.48582 96.4748 4.66158 96.4748 3.70088C96.4748 2.74018 96.1309 1.9214 95.4431 1.24454C94.7663 0.556769 93.9475 0.212882 92.9868 0.212882C92.0261 0.212882 91.2018 0.556769 90.5141 1.24454C89.8372 1.9214 89.4988 2.74018 89.4988 3.70088C89.4988 4.66158 89.8372 5.48582 90.5141 6.1736C91.2018 6.86137 92.0261 7.20526 92.9868 7.20526ZM90.0064 26.8C90.0064 27.1927 90.3247 27.511 90.7174 27.511H95.2725C95.6652 27.511 95.9835 27.1927 95.9835 26.8V11.4534C95.9835 11.0607 95.6652 10.7424 95.2725 10.7424H90.7174C90.3247 10.7424 90.0064 11.0607 90.0064 11.4534V26.8Z" fill="#01B0F0" id="brand-color" />
  <path d="M105.342 26.8C105.342 27.1927 105.66 27.511 106.053 27.511H110.952C111.344 27.511 111.663 27.1927 111.663 26.8V6.75359C111.663 6.36091 111.981 6.04259 112.374 6.04259H117.289C117.682 6.04259 118 5.72427 118 5.33159V1.20226C118 0.80959 117.682 0.491266 117.289 0.491266H99.7153C99.3226 0.491266 99.0043 0.809589 99.0043 1.20226V5.33159C99.0043 5.72427 99.3226 6.04259 99.7153 6.04259H104.631C105.023 6.04259 105.342 6.36091 105.342 6.75359V26.8Z" fill="#01B0F0" id="brand-color2" />
</svg>