<svg width="198" height="79" viewBox="0 0 198 79" fill="none" xmlns="http://www.w3.org/2000/svg">
  <path d="M79.6124 65.5041C77.5056 61.154 75.3942 56.8062 73.2601 52.4652C69.3309 44.4748 65.3448 36.5117 61.3838 28.5396C60.7376 28.5623 60.0915 28.5874 59.4476 28.6124C52.9179 41.9607 46.3905 55.3068 39.8676 68.6575C38.5503 71.3581 37.2466 74.0655 35.6813 77.2985H47.5122C48.1242 77.1666 48.7339 76.9891 49.3391 76.757C55.8142 74.2885 62.2552 71.7266 68.8531 69.1466C70.2569 72.0429 71.5674 74.7435 72.7914 77.278C72.7937 77.2826 72.796 77.2917 72.7983 77.2962C72.8005 77.3008 72.8028 77.3076 72.8051 77.3122H84.8111C84.8134 77.3008 84.8134 77.2894 84.8156 77.278H85.3731L79.6283 65.5405L79.6124 65.5041ZM54.6198 63.5475C56.6606 59.17 58.483 55.2568 60.4806 50.9772C61.8434 54.0168 63.031 56.6674 64.3233 59.5432C61.1972 60.8355 58.1007 62.1096 54.6198 63.5475Z" fill="white" />
  <path d="M115.125 52.3514C112.937 50.6814 110.502 49.4369 108.047 48.2265C106.168 47.2983 104.198 46.5224 102.357 45.5236C101.015 44.7956 99.2993 43.6102 99.7293 41.8379C100.023 40.6366 101.217 39.7584 102.398 39.5627C103.031 39.4603 103.69 39.4603 104.35 39.5332C105.313 39.6378 106.27 39.9086 107.135 40.2453C107.231 40.2817 107.324 40.3226 107.417 40.3613C107.422 40.3636 107.428 40.3659 107.433 40.3659C108.773 40.8596 110.618 41.6809 112.752 43.0141C112.964 43.1461 113.178 43.2826 113.394 43.4259C113.394 43.4259 118.338 39.0554 119.928 34.5369C120.115 34.2593 116.684 31.8226 116.329 31.5951C115.08 30.792 113.744 30.1299 112.361 29.5884C109.565 28.5032 106.534 27.9367 103.533 28.0573C94.5738 28.4099 85.9146 35.654 87.7734 45.2575C88.6402 49.7463 91.8254 52.3832 95.4816 54.4923C98.9216 56.4717 102.525 58.1735 106.036 60.0346C107.269 60.6876 108.498 61.5885 108.489 63.122C108.477 64.7419 107.278 65.8408 105.806 66.289C104.751 66.6121 103.618 66.6917 102.494 66.5825L101.752 66.487C101.752 66.487 101.752 66.487 101.75 66.487C101.743 66.487 101.734 66.4847 101.727 66.4847C100.696 66.2663 99.1605 65.7839 97.4155 64.7078C96.4394 64.1071 95.3951 63.3177 94.3372 62.287C94.0756 62.0322 93.8162 61.7615 93.5523 61.4771C90.4216 63.9024 88.5697 66.7236 87.6073 68.5414C87.1909 69.2649 86.8815 69.9156 86.7495 70.4116C86.7473 70.423 86.745 70.4275 86.745 70.4275C93.0199 78.5339 106.578 80.5406 114.811 74.5842C122.679 68.8804 122.836 58.2395 115.125 52.3514Z" fill="white" />
  <path d="M31.5246 53.4071C30.6646 52.5721 29.6954 51.8486 28.6738 50.9886C30.8125 49.4688 32.3095 47.6873 32.9853 45.2552C35.2377 37.1647 30.0844 29.9252 20.9883 28.4577C14.5223 28.1232 8.05178 28.4054 1.58351 28.3121C1.37874 28.2984 1.18081 28.3052 0.996521 28.3394C0.946467 28.3462 0.894135 28.3576 0.844082 28.3735C0.664344 28.4213 0.495984 28.5032 0.348099 28.6238C0.120583 28.8103 0 29.0993 0 29.3928V76.8844C0 77.2348 0.284397 77.5192 0.634771 77.5192H1.24223C1.27181 77.5215 1.30139 77.5237 1.32869 77.5237C8.79349 77.5169 16.297 77.8787 23.7208 77.2803C29.4656 76.8162 33.6906 73.3011 35.5243 67.6314C37.3058 62.0982 35.6108 57.3681 31.5246 53.4071ZM12.1516 39.2988C13.9626 39.2988 15.7031 39.2124 17.43 39.3193C19.9964 39.4831 21.5958 41.2441 21.5458 43.6648C21.4957 46.031 19.7825 47.7488 17.2776 47.9399C17.0318 47.9581 16.7816 47.9421 16.5336 47.9421H12.1516V39.2988ZM19.332 66.7395C16.9704 66.9215 14.5769 66.7782 12.0879 66.7782V58.1394C14.5769 58.1394 16.9659 58.0006 19.3297 58.1781C21.8461 58.3646 23.3909 60.0801 23.4478 62.3234C23.5047 64.6623 21.903 66.5416 19.332 66.7395Z" fill="white" />
  <path d="M154.718 41.3374C155.339 41.3351 155.969 41.4033 156.585 41.3351C156.599 41.3328 156.613 41.3328 156.626 41.3328H157.157C157.423 41.3328 157.639 41.1167 157.639 40.8505V40.7253C157.646 40.6889 157.65 40.6548 157.65 40.6161V28.5555C156.479 28.535 155.311 28.5123 154.14 28.4918C144.457 34.0523 134.776 39.6105 125.377 45.0095C125.377 45.0095 125.377 77.1119 125.379 77.1165V77.2553C125.379 77.4464 125.534 77.6011 125.725 77.6011C127.297 77.6011 128.872 77.6079 130.442 77.6079C132.157 77.6011 133.873 77.5897 135.588 77.5806C137.304 77.5693 139.021 77.5624 140.734 77.551C142.45 77.5397 144.168 77.5306 145.883 77.5192C147.599 77.5078 149.314 77.4987 151.03 77.4874C153.234 77.4737 155.441 77.4578 157.646 77.4441V66.967H137.269V59.1405H148.82V48.1196H137.269V41.3396C143.148 41.3442 148.934 41.351 154.718 41.3374Z" fill="white" />
  <path d="M159.755 3.01686C159.718 10.6523 160.401 18.2377 162.958 25.4772C164.289 29.2426 170.325 27.6204 168.983 23.8164C166.592 17.0478 165.968 10.1518 166.002 3.01686C166.021 -1.00334 159.773 -1.0079 159.755 3.01686Z" fill="#6DD1E8" id="brand-color" />
  <path d="M194.487 7.56945C192.306 7.56035 190.146 7.60813 188.008 7.75829C187.926 7.76284 187.844 7.76739 187.76 7.77876C187.837 8.46814 188.11 10.9367 188.253 13.0025V13.0071C188.481 15.0047 188.313 17.0432 188.228 19.0522C188.117 21.9143 187.869 24.7765 187.448 27.6136C186.857 31.5815 180.836 29.8842 181.423 25.955C182.288 20.1534 182.224 14.2994 181.817 8.46814C179.082 8.93454 176.375 9.60344 173.688 10.5545C169.884 11.8991 168.264 5.85853 172.029 4.52984C179.267 1.97256 186.847 1.29001 194.487 1.32869C198.508 1.34234 198.503 7.58993 194.487 7.56945Z" fill="#6DD1E8" id="brand-color2" />
</svg>