<svg width="121" height="43" viewBox="0 0 121 43" fill="none" xmlns="http://www.w3.org/2000/svg">
  <path d="M0.347565 40.5292H0.977193V37.381H4.7094V40.5292H5.33489V33.6944H4.7094V36.826H0.977193V33.6944H0.347565V40.5292Z" fill="white" />
  <path d="M9.37026 40.6617C9.79277 40.6617 10.1766 40.5706 10.5218 40.3883C10.8698 40.2061 11.1445 39.9506 11.3461 39.622L10.8988 39.3818C10.5453 39.9009 10.0441 40.1605 9.39511 40.1605C9.0582 40.1605 8.75858 40.0887 8.49623 39.9451C8.23389 39.7988 8.02815 39.5985 7.87903 39.3445C7.73267 39.0877 7.65949 38.7949 7.65949 38.4663H11.4787C11.4842 38.4359 11.487 38.4097 11.487 38.3876C11.4897 38.3655 11.4911 38.3393 11.4911 38.3089C11.4801 37.8864 11.3779 37.5136 11.1846 37.1905C10.994 36.8646 10.7345 36.6106 10.4058 36.4283C10.08 36.246 9.70716 36.1549 9.28741 36.1549C8.98088 36.1549 8.6923 36.2129 8.42167 36.3289C8.1538 36.4449 7.91769 36.6064 7.71334 36.8135C7.50899 37.0207 7.34882 37.2623 7.23283 37.5384C7.11685 37.8118 7.05886 38.1073 7.05886 38.4249C7.05886 38.8474 7.15827 39.2285 7.3571 39.5682C7.55869 39.9051 7.83347 40.1716 8.18142 40.3676C8.52937 40.5637 8.92565 40.6617 9.37026 40.6617ZM7.69263 38.0107C7.72853 37.7428 7.81966 37.5081 7.96602 37.3065C8.11514 37.1021 8.30431 36.9433 8.53351 36.8301C8.76272 36.7141 9.01678 36.6561 9.2957 36.6561C9.56909 36.6561 9.81901 36.7141 10.0455 36.8301C10.2719 36.9461 10.4597 37.1063 10.6088 37.3106C10.7579 37.515 10.8504 37.7483 10.8863 38.0107H7.69263Z" fill="white" />
  <path d="M12.941 40.5292H13.5458V37.7663C13.5458 37.5674 13.5941 37.3838 13.6908 37.2153C13.7902 37.0441 13.9324 36.9074 14.1175 36.8053C14.3025 36.7003 14.5248 36.6479 14.7844 36.6479C15.1544 36.6479 15.4416 36.7638 15.646 36.9958C15.8531 37.2278 15.9566 37.5619 15.9566 37.9982V40.5292H16.5614V37.8823C16.5614 37.3355 16.4192 36.9116 16.1348 36.6106C15.8531 36.3068 15.4665 36.1549 14.9749 36.1549C14.6242 36.1549 14.326 36.224 14.0802 36.362C13.8372 36.5001 13.659 36.6686 13.5458 36.8674V36.2875H12.941V40.5292Z" fill="white" />
  <path d="M18.306 40.5292H18.9107V38.516L20.7209 40.5292H21.4955L19.4617 38.2841L21.3961 36.2875H20.6049L18.9107 38.0231V33.4044H18.306V40.5292Z" fill="white" />
  <path d="M23.2086 35.4383C23.3191 35.4383 23.413 35.3996 23.4903 35.3223C23.5676 35.245 23.6063 35.1511 23.6063 35.0406C23.6063 34.9302 23.5676 34.8377 23.4903 34.7631C23.413 34.6858 23.3191 34.6471 23.2086 34.6471C23.0982 34.6471 23.0043 34.6858 22.9269 34.7631C22.8524 34.8377 22.8151 34.9302 22.8151 35.0406C22.8151 35.1511 22.8524 35.245 22.9269 35.3223C23.0043 35.3996 23.0982 35.4383 23.2086 35.4383ZM22.9062 40.5292H23.511V36.2875H22.9062V40.5292Z" fill="white" />
  <path d="M25.3385 40.5292H25.9433V33.4044H25.3385V40.5292Z" fill="white" />
  <path d="M29.7922 40.6617C30.234 40.6617 30.6317 40.5665 30.9851 40.3759C31.3414 40.1854 31.623 39.9203 31.8302 39.5806C32.0373 39.2409 32.1408 38.8502 32.1408 38.4083C32.1408 37.9637 32.0373 37.573 31.8302 37.2361C31.623 36.8964 31.3414 36.6313 30.9851 36.4407C30.6317 36.2502 30.234 36.1549 29.7922 36.1549C29.3503 36.1549 28.9513 36.2502 28.595 36.4407C28.2416 36.6313 27.9613 36.8964 27.7541 37.2361C27.547 37.573 27.4435 37.9637 27.4435 38.4083C27.4435 38.8502 27.547 39.2409 27.7541 39.5806C27.9613 39.9203 28.2416 40.1854 28.595 40.3759C28.9513 40.5665 29.3503 40.6617 29.7922 40.6617ZM29.7922 40.1232C29.4608 40.1232 29.1653 40.0501 28.9057 39.9037C28.6461 39.7573 28.4418 39.5557 28.2926 39.2989C28.1435 39.0393 28.069 38.7425 28.069 38.4083C28.069 38.0742 28.1435 37.7787 28.2926 37.5219C28.4418 37.2623 28.6461 37.0593 28.9057 36.913C29.1653 36.7666 29.4608 36.6934 29.7922 36.6934C30.1235 36.6934 30.419 36.7666 30.6786 36.913C30.9382 37.0593 31.1425 37.2623 31.2917 37.5219C31.4408 37.7787 31.5153 38.0742 31.5153 38.4083C31.5153 38.7425 31.4408 39.0393 31.2917 39.2989C31.1425 39.5557 30.9382 39.7573 30.6786 39.9037C30.419 40.0501 30.1235 40.1232 29.7922 40.1232ZM30.7697 34.9785C30.8719 34.9785 30.9589 34.9426 31.0307 34.8708C31.1025 34.799 31.1384 34.712 31.1384 34.6098C31.1384 34.5077 31.1025 34.4207 31.0307 34.3489C30.9589 34.2771 30.8719 34.2412 30.7697 34.2412C30.6676 34.2412 30.5806 34.2771 30.5088 34.3489C30.437 34.4207 30.4011 34.5077 30.4011 34.6098C30.4011 34.712 30.437 34.799 30.5088 34.8708C30.5806 34.9426 30.6676 34.9785 30.7697 34.9785ZM28.8146 34.9785C28.9168 34.9785 29.0037 34.9426 29.0755 34.8708C29.1473 34.799 29.1832 34.712 29.1832 34.6098C29.1832 34.5077 29.1473 34.4207 29.0755 34.3489C29.0037 34.2771 28.9168 34.2412 28.8146 34.2412C28.7124 34.2412 28.6254 34.2771 28.5536 34.3489C28.4818 34.4207 28.4459 34.5077 28.4459 34.6098C28.4459 34.712 28.4818 34.799 28.5536 34.8708C28.6254 34.9426 28.7124 34.9785 28.8146 34.9785Z" fill="white" />
  <path d="M34.743 40.6617C35.2042 40.6617 35.5798 40.5375 35.8697 40.2889C36.1625 40.0404 36.3088 39.7035 36.3088 39.2782C36.3088 39.0297 36.2577 38.8336 36.1556 38.69C36.0534 38.5436 35.9098 38.4235 35.7248 38.3296C35.5397 38.233 35.3243 38.1391 35.0786 38.0479C34.9073 37.9817 34.7472 37.9154 34.5981 37.8491C34.4517 37.7828 34.3329 37.7041 34.2418 37.613C34.1507 37.5191 34.1051 37.4004 34.1051 37.2568C34.1051 37.0607 34.1769 36.9019 34.3205 36.7804C34.4669 36.6589 34.656 36.5981 34.888 36.5981C35.2663 36.5981 35.5825 36.7652 35.8366 37.0994L36.1141 36.7473C35.9484 36.5595 35.7607 36.4145 35.5508 36.3123C35.3437 36.2101 35.1214 36.1591 34.8839 36.1591C34.6243 36.1591 34.3923 36.2088 34.188 36.3082C33.9836 36.4048 33.8234 36.5388 33.7075 36.71C33.5915 36.8784 33.5335 37.0717 33.5335 37.2899C33.5335 37.5053 33.5873 37.6834 33.695 37.8243C33.8055 37.9623 33.945 38.0769 34.1134 38.1681C34.2819 38.2592 34.4558 38.3407 34.6353 38.4125C34.8645 38.5008 35.0579 38.5795 35.2153 38.6486C35.3727 38.7176 35.4914 38.8005 35.5715 38.8971C35.6543 38.9938 35.6958 39.1277 35.6958 39.2989C35.6958 39.5751 35.6019 39.7932 35.4141 39.9534C35.2263 40.1136 35.0012 40.1937 34.7389 40.1937C34.4793 40.1937 34.2432 40.1191 34.0306 39.97C33.8179 39.8181 33.6453 39.6068 33.5128 39.3362L33.1897 39.6842C33.3388 39.9962 33.5473 40.2378 33.8152 40.4091C34.083 40.5775 34.3923 40.6617 34.743 40.6617Z" fill="white" />
  <path d="M38.7679 40.6617C39.0386 40.6617 39.276 40.5982 39.4804 40.4712L39.3271 39.9907C39.2056 40.0818 39.062 40.1274 38.8963 40.1274C38.5456 40.1274 38.3703 39.8857 38.3703 39.4025V36.7431H39.4265V36.2875H38.3703V34.701H37.7655V36.2875H37.3347V36.7431H37.7655V39.4356C37.7655 39.825 37.8525 40.1274 38.0265 40.3428C38.2032 40.5554 38.4503 40.6617 38.7679 40.6617Z" fill="white" />
  <path d="M42.8692 40.6617C43.311 40.6617 43.7087 40.5665 44.0622 40.3759C44.4184 40.1854 44.7001 39.9203 44.9072 39.5806C45.1143 39.2409 45.2179 38.8502 45.2179 38.4083C45.2179 37.9637 45.1143 37.573 44.9072 37.2361C44.7001 36.8964 44.4184 36.6313 44.0622 36.4407C43.7087 36.2502 43.311 36.1549 42.8692 36.1549C42.4273 36.1549 42.0283 36.2502 41.6721 36.4407C41.3186 36.6313 41.0383 36.8964 40.8312 37.2361C40.6241 37.573 40.5205 37.9637 40.5205 38.4083C40.5205 38.8502 40.6241 39.2409 40.8312 39.5806C41.0383 39.9203 41.3186 40.1854 41.6721 40.3759C42.0283 40.5665 42.4273 40.6617 42.8692 40.6617ZM42.8692 40.1232C42.5378 40.1232 42.2423 40.0501 41.9827 39.9037C41.7231 39.7573 41.5188 39.5557 41.3697 39.2989C41.2205 39.0393 41.146 38.7425 41.146 38.4083C41.146 38.0742 41.2205 37.7787 41.3697 37.5219C41.5188 37.2623 41.7231 37.0593 41.9827 36.913C42.2423 36.7666 42.5378 36.6934 42.8692 36.6934C43.2006 36.6934 43.4961 36.7666 43.7556 36.913C44.0152 37.0593 44.2196 37.2623 44.3687 37.5219C44.5178 37.7787 44.5924 38.0742 44.5924 38.4083C44.5924 38.7425 44.5178 39.0393 44.3687 39.2989C44.2196 39.5557 44.0152 39.7573 43.7556 39.9037C43.4961 40.0501 43.2006 40.1232 42.8692 40.1232ZM43.8468 34.9785C43.9489 34.9785 44.0359 34.9426 44.1077 34.8708C44.1795 34.799 44.2154 34.712 44.2154 34.6098C44.2154 34.5077 44.1795 34.4207 44.1077 34.3489C44.0359 34.2771 43.9489 34.2412 43.8468 34.2412C43.7446 34.2412 43.6576 34.2771 43.5858 34.3489C43.514 34.4207 43.4781 34.5077 43.4781 34.6098C43.4781 34.712 43.514 34.799 43.5858 34.8708C43.6576 34.9426 43.7446 34.9785 43.8468 34.9785ZM41.8916 34.9785C41.9938 34.9785 42.0808 34.9426 42.1526 34.8708C42.2244 34.799 42.2603 34.712 42.2603 34.6098C42.2603 34.5077 42.2244 34.4207 42.1526 34.3489C42.0808 34.2771 41.9938 34.2412 41.8916 34.2412C41.7894 34.2412 41.7024 34.2771 41.6306 34.3489C41.5588 34.4207 41.5229 34.5077 41.5229 34.6098C41.5229 34.712 41.5588 34.799 41.6306 34.8708C41.7024 34.9426 41.7894 34.9785 41.8916 34.9785Z" fill="white" />
  <path d="M46.7182 42.6832H47.323V39.6344C47.5025 39.9548 47.7455 40.2061 48.052 40.3883C48.3613 40.5706 48.7024 40.6617 49.0752 40.6617C49.4811 40.6617 49.8429 40.5637 50.1605 40.3676C50.4808 40.1716 50.7321 39.9037 50.9144 39.564C51.0994 39.2244 51.1919 38.8391 51.1919 38.4083C51.1919 37.9748 51.0994 37.5895 50.9144 37.2526C50.7293 36.913 50.4767 36.6451 50.1563 36.449C49.8387 36.253 49.4756 36.1549 49.0669 36.1549C48.6913 36.1549 48.3489 36.2447 48.0396 36.4242C47.7331 36.6009 47.4942 36.8481 47.323 37.1656V36.2875H46.7182V42.6832ZM48.9343 40.1357C48.6168 40.1357 48.3351 40.0625 48.0893 39.9161C47.8435 39.767 47.6502 39.5626 47.5094 39.3031C47.3686 39.0407 47.2981 38.7425 47.2981 38.4083C47.2981 38.0714 47.3686 37.7732 47.5094 37.5136C47.6502 37.254 47.8435 37.051 48.0893 36.9047C48.3351 36.7556 48.6168 36.681 48.9343 36.681C49.2519 36.681 49.5322 36.7556 49.7752 36.9047C50.021 37.051 50.2143 37.2554 50.3552 37.5177C50.496 37.7773 50.5664 38.0756 50.5664 38.4125C50.5664 38.7466 50.496 39.0435 50.3552 39.3031C50.2143 39.5626 50.021 39.767 49.7752 39.9161C49.5322 40.0625 49.2519 40.1357 48.9343 40.1357Z" fill="white" />
  <path d="M54.5244 40.6617C54.8999 40.6617 55.241 40.5706 55.5475 40.3883C55.854 40.2061 56.0984 39.9548 56.2807 39.6344V40.5292H56.8855V36.2875H56.2807V37.1698C56.1205 36.8522 55.883 36.6037 55.5682 36.4242C55.2562 36.2447 54.9082 36.1549 54.5244 36.1549C54.1212 36.1549 53.7594 36.253 53.4391 36.449C53.1215 36.6423 52.8702 36.9088 52.6852 37.2485C52.5029 37.5882 52.4118 37.9734 52.4118 38.4042C52.4118 38.8405 52.5043 39.2285 52.6893 39.5682C52.8771 39.9078 53.1298 40.1757 53.4474 40.3718C53.7649 40.5651 54.1239 40.6617 54.5244 40.6617ZM54.6735 40.1357C54.3587 40.1357 54.077 40.0611 53.8285 39.912C53.5827 39.7629 53.3894 39.5585 53.2485 39.2989C53.1077 39.0393 53.0373 38.7425 53.0373 38.4083C53.0373 38.0714 53.1077 37.7732 53.2485 37.5136C53.3894 37.254 53.5827 37.051 53.8285 36.9047C54.0742 36.7556 54.3559 36.681 54.6735 36.681C54.9911 36.681 55.2727 36.7556 55.5185 36.9047C55.7643 37.051 55.9562 37.254 56.0943 37.5136C56.2351 37.7732 56.3056 38.0714 56.3056 38.4083C56.3056 38.7425 56.2351 39.0407 56.0943 39.3031C55.9535 39.5626 55.7602 39.767 55.5144 39.9161C55.2714 40.0625 54.9911 40.1357 54.6735 40.1357Z" fill="white" />
  <path d="M58.7102 40.5292H59.3149V33.4044H58.7102V40.5292Z" fill="white" />
  <path d="M62.5229 40.5292H62.9206L64.9835 36.2875H64.2751L62.7218 39.6676L61.1726 36.2875H60.4642L62.5229 40.5292Z" fill="white" />
  <path d="M68.1436 40.6617C68.5661 40.6617 68.95 40.5706 69.2951 40.3883C69.6431 40.2061 69.9179 39.9506 70.1195 39.622L69.6721 39.3818C69.3186 39.9009 68.8174 40.1605 68.1684 40.1605C67.8315 40.1605 67.5319 40.0887 67.2696 39.9451C67.0072 39.7988 66.8015 39.5985 66.6524 39.3445C66.506 39.0877 66.4328 38.7949 66.4328 38.4663H70.252C70.2575 38.4359 70.2603 38.4097 70.2603 38.3876C70.2631 38.3655 70.2644 38.3393 70.2644 38.3089C70.2534 37.8864 70.1512 37.5136 69.9579 37.1905C69.7674 36.8646 69.5078 36.6106 69.1792 36.4283C68.8533 36.246 68.4805 36.1549 68.0607 36.1549C67.7542 36.1549 67.4656 36.2129 67.195 36.3289C66.9271 36.4449 66.691 36.6064 66.4867 36.8135C66.2823 37.0207 66.1221 37.2623 66.0062 37.5384C65.8902 37.8118 65.8322 38.1073 65.8322 38.4249C65.8322 38.8474 65.9316 39.2285 66.1304 39.5682C66.332 39.9051 66.6068 40.1716 66.9548 40.3676C67.3027 40.5637 67.699 40.6617 68.1436 40.6617ZM66.466 38.0107C66.5019 37.7428 66.593 37.5081 66.7394 37.3065C66.8885 37.1021 67.0776 36.9433 67.3068 36.8301C67.536 36.7141 67.7901 36.6561 68.069 36.6561C68.3424 36.6561 68.5923 36.7141 68.8188 36.8301C69.0452 36.9461 69.233 37.1063 69.3821 37.3106C69.5312 37.515 69.6238 37.7483 69.6597 38.0107H66.466Z" fill="white" />
  <path d="M71.7144 40.5292H72.3192V33.4044H71.7144V40.5292Z" fill="white" />
  <path d="M75.8574 40.6617C76.5008 40.6617 76.9606 40.5181 77.2368 40.2309C77.5129 39.941 77.651 39.4549 77.651 38.7728V36.2875H77.0462V38.6651C77.0462 39.2009 76.9551 39.5834 76.7728 39.8126C76.5933 40.039 76.2882 40.1522 75.8574 40.1522C75.4293 40.1522 75.1242 40.039 74.9419 39.8126C74.7597 39.5834 74.6685 39.2009 74.6685 38.6651V36.2875H74.0638V38.7728C74.0638 39.4549 74.2018 39.941 74.478 40.2309C74.7541 40.5181 75.2139 40.6617 75.8574 40.6617Z" fill="white" />
  <path d="M80.418 40.6617C80.6887 40.6617 80.9262 40.5982 81.1305 40.4712L80.9773 39.9907C80.8557 40.0818 80.7121 40.1274 80.5465 40.1274C80.1957 40.1274 80.0204 39.8857 80.0204 39.4025V36.7431H81.0767V36.2875H80.0204V34.701H79.4156V36.2875H78.9848V36.7431H79.4156V39.4356C79.4156 39.825 79.5026 40.1274 79.6766 40.3428C79.8533 40.5554 80.1005 40.6617 80.418 40.6617Z" fill="white" />
  <path d="M0 28.1742C0 28.4205 0.199627 28.6201 0.445878 28.6201H10.5121C12.2066 28.6201 13.6751 28.3325 14.9177 27.7575C16.1706 27.1721 17.1359 26.3403 17.8137 25.262C18.5017 24.1734 18.8458 22.8743 18.8458 21.3647C18.8458 19.6292 18.3836 18.2274 17.4594 17.1594C16.8049 16.4031 16.3339 15.8425 15.4947 15.4775C15.1039 15.3076 15.004 14.6854 15.3468 14.4323C16.6979 13.4342 17.3734 12.1684 17.3734 10.0983C17.3734 7.9623 16.4162 5.84761 15.0196 4.78986C13.6332 3.73211 11.982 3.20323 9.54812 3.20323H0.445878C0.199627 3.20323 0 3.40286 0 3.64911V28.1742ZM6.65078 13.3362C6.40452 13.3362 6.2049 13.1366 6.2049 12.8903V9.25972C6.2049 9.01347 6.40452 8.81384 6.65078 8.81384H6.82106C10.4951 8.81384 11.1099 9.42271 11.1099 11.1582C11.1099 12.9554 9.1625 13.3362 6.82106 13.3362H6.65078ZM6.65078 23.253C6.40452 23.253 6.2049 23.0533 6.2049 22.8071V18.8962C6.2049 18.65 6.40452 18.4504 6.65078 18.4504H7.89936C9.26519 18.4504 10.3024 18.4482 11.011 18.9617C11.7196 19.4752 12.0739 20.2146 12.0739 21.1799C12.0739 23.0797 10.6824 23.253 7.89936 23.253H6.65078Z" fill="white" />
  <path d="M18.7995 27.983C18.6591 28.2789 18.8749 28.6201 19.2023 28.6201H24.7949C24.8575 28.6201 24.9194 28.6069 24.9766 28.5814L26.723 27.8022L35.2294 24.5733C35.4362 24.4948 35.6692 24.5797 35.777 24.7728L37.7972 28.3916C37.876 28.5327 38.0249 28.6201 38.1865 28.6201H43.8612C44.1911 28.6201 44.4068 28.2742 44.2615 27.9779L32.2351 3.4528C32.1602 3.30004 32.0049 3.20323 31.8348 3.20323H30.8413C30.6691 3.20323 30.5123 3.30238 30.4385 3.45794L18.7995 27.983ZM29.4198 21.0653C29.0435 21.2196 28.6739 20.8309 28.8471 20.4629L31.0431 15.7964C31.2068 15.4484 31.7048 15.4571 31.8563 15.8107L33.2288 19.0131C33.3269 19.242 33.2186 19.5068 32.9882 19.6013L29.4198 21.0653Z" fill="white" />
  <path d="M53.0022 28.8541C54.9637 28.8541 56.6684 28.7998 58.1164 28.1734C59.5644 27.5367 60.6837 26.6227 61.4745 25.4314C62.2755 24.2402 62.676 22.8076 62.676 21.1337C62.676 19.6857 62.109 18.4893 61.4929 17.5445C60.887 16.5894 59.9935 15.7576 58.8126 15.049C57.6418 14.3404 56.2144 13.6267 54.5302 12.9078C53.4314 12.4457 53.1276 12.0606 52.5833 11.7525C52.039 11.4342 51.7669 10.9515 51.7669 10.3045C51.7669 9.70287 51.9916 9.43785 52.4409 9.07253C52.4938 9.02958 52.5563 8.9996 52.6232 8.98665C54.0229 8.71528 55.3501 9.19589 56.3816 9.56728C56.4262 9.58333 56.4679 9.60653 56.5055 9.63539C57.1559 10.1347 57.6336 10.3477 58.1991 10.6956C58.3903 10.8133 58.6403 10.7829 58.789 10.6148L62.1587 6.80754C62.3335 6.61002 62.3015 6.30267 62.0964 6.13687C61.4223 5.59215 60.443 4.7405 59.7338 4.44501C58.8712 4.08558 57.9623 3.53914 57.0073 3.32349C56.0625 3.10783 54.6256 3 53.7322 3C52.0172 3 50.5127 3.3697 49.2187 4.1091C47.9351 4.83823 47.1978 5.53439 46.4892 6.71538C45.7806 7.88609 45.4263 9.1287 45.4263 10.4432C45.4263 11.9939 45.8987 13.557 46.8435 14.6147C47.7883 15.6622 48.9693 16.5094 50.3865 17.1564C51.6496 17.7315 52.6868 18.2244 53.4981 18.6352C54.3197 19.046 54.9256 19.2082 55.3158 19.6395C55.706 20.0708 56.1601 20.6099 56.1601 21.2569C56.1601 22.0477 55.629 22.3792 55.0847 22.7695C54.5507 23.1597 54.0856 23.096 53.1717 23.096C51.1586 23.096 49.9454 21.7502 48.5025 20.5979C48.3156 20.4486 48.0447 20.482 47.8936 20.6674L44.8508 24.4001C44.6981 24.5874 44.7227 24.8627 44.9063 25.0199C47.476 27.2215 49.5647 28.8541 53.0022 28.8541Z" fill="white" />
  <path d="M64.9922 28.1742C64.9922 28.4205 65.1918 28.6201 65.4381 28.6201H81.4055C81.6517 28.6201 81.8514 28.4205 81.8514 28.1742V23.6005C81.8514 23.3542 81.6517 23.1546 81.4055 23.1546H71.5535C71.3073 23.1546 71.1077 22.955 71.1077 22.7087V19.7067C71.1077 19.4605 71.3073 19.2608 71.5535 19.2608H76.8935C77.1397 19.2608 77.3394 19.0612 77.3394 18.815V13.7234C77.3394 13.4772 77.1397 13.2775 76.8935 13.2775H71.8124C71.5662 13.2775 71.3666 13.0779 71.3666 12.8317V10.4091C71.3666 10.1628 71.5662 9.9632 71.8124 9.9632H81.4055C81.6517 9.9632 81.8514 9.76357 81.8514 9.51732V3.64911C81.8514 3.40286 81.6518 3.20323 81.4056 3.20323C80.8519 3.20323 80.2482 3.20323 79.9977 3.20323C79.9195 3.20323 79.8429 3.22381 79.7752 3.2629L65.2153 11.6633C65.0772 11.743 64.9922 11.8902 64.9922 12.0495V28.1742Z" fill="white" />
  <rect x="88" width="33" height="33" rx="1" fill="#219653" />
  <path d="M94.4706 9.77782C95.3743 9.77782 96.1445 9.45433 96.7813 8.80735C97.4282 8.16038 97.7517 7.38504 97.7517 6.48133C97.7517 5.57762 97.4282 4.80741 96.7813 4.1707C96.1445 3.52373 95.3743 3.20024 94.4706 3.20024C93.5669 3.20024 92.7916 3.52373 92.1446 4.1707C91.5079 4.80741 91.1895 5.57762 91.1895 6.48133C91.1895 7.38504 91.5079 8.16038 92.1446 8.80735C92.7916 9.45433 93.5669 9.77782 94.4706 9.77782ZM91.6671 28.2102C91.6671 28.5795 91.9665 28.879 92.3359 28.879H96.6208C96.9902 28.879 97.2896 28.5795 97.2896 28.2102V13.7739C97.2896 13.4046 96.9902 13.1051 96.6208 13.1051H92.3359C91.9665 13.1051 91.6671 13.4046 91.6671 13.7739V28.2102Z" fill="white" />
  <path d="M106.093 28.2102C106.093 28.5795 106.392 28.879 106.761 28.879H111.37C111.739 28.879 112.039 28.5795 112.039 28.2102V9.35294C112.039 8.98356 112.338 8.68412 112.707 8.68412H117.331C117.701 8.68412 118 8.38468 118 8.0153V4.13093C118 3.76155 117.701 3.46211 117.331 3.46211H100.8C100.431 3.46211 100.131 3.76155 100.131 4.13093V8.0153C100.131 8.38468 100.431 8.68412 100.8 8.68412H105.424C105.793 8.68412 106.093 8.98356 106.093 9.35294V28.2102Z" fill="white" />
</svg>