<svg width="214" height="76" viewBox="0 0 214 76" fill="none" xmlns="http://www.w3.org/2000/svg">
<path d="M0.613281 71.516H1.7243V65.9609H8.30998V71.516H9.41369V59.4556H8.30998V64.9815H1.7243V59.4556H0.613281V71.516Z" fill="#2F2F2F"/>
<path d="M16.5343 71.7499C17.2799 71.7499 17.9572 71.5891 18.5663 71.2675C19.1803 70.9459 19.6651 70.4951 20.0209 69.9152L19.2315 69.4913C18.6077 70.4074 17.7233 70.8655 16.5782 70.8655C15.9837 70.8655 15.455 70.7388 14.9921 70.4854C14.5291 70.2271 14.1661 69.8738 13.903 69.4255C13.6447 68.9723 13.5156 68.4558 13.5156 67.8759H20.2548C20.2645 67.8223 20.2694 67.7761 20.2694 67.7371C20.2743 67.6981 20.2767 67.6518 20.2767 67.5982C20.2572 66.8526 20.0769 66.1948 19.7358 65.6247C19.3996 65.0497 18.9415 64.6014 18.3617 64.2798C17.7867 63.9582 17.1288 63.7974 16.3881 63.7974C15.8472 63.7974 15.338 63.8997 14.8605 64.1043C14.3878 64.309 13.9712 64.5941 13.6106 64.9595C13.25 65.325 12.9674 65.7514 12.7627 66.2387C12.5581 66.7211 12.4557 67.2425 12.4557 67.8029C12.4557 68.5484 12.6312 69.2209 12.982 69.8202C13.3377 70.4147 13.8226 70.8849 14.4366 71.2309C15.0505 71.5769 15.7498 71.7499 16.5343 71.7499ZM13.5741 67.0719C13.6374 66.5993 13.7982 66.1851 14.0565 65.8293C14.3196 65.4687 14.6534 65.1886 15.0578 64.9888C15.4623 64.7841 15.9106 64.6818 16.4028 64.6818C16.8852 64.6818 17.3262 64.7841 17.7257 64.9888C18.1253 65.1934 18.4567 65.4761 18.7198 65.8366C18.9829 66.1972 19.1462 66.609 19.2095 67.0719H13.5741Z" fill="#2F2F2F"/>
<path d="M22.8352 71.516H23.9023V66.6407C23.9023 66.2898 23.9876 65.9658 24.1582 65.6685C24.3336 65.3664 24.5845 65.1252 24.911 64.9449C25.2375 64.7597 25.6298 64.6672 26.0878 64.6672C26.7408 64.6672 27.2476 64.8718 27.6082 65.2811C27.9736 65.6905 28.1564 66.2801 28.1564 67.05V71.516H29.2235V66.8453C29.2235 65.8805 28.9726 65.1325 28.4706 64.6014C27.9736 64.0654 27.2914 63.7974 26.424 63.7974C25.8052 63.7974 25.2789 63.9192 24.8452 64.1628C24.4164 64.4065 24.1021 64.7037 23.9023 65.0546V64.0312H22.8352V71.516Z" fill="#2F2F2F"/>
<path d="M32.3019 71.516H33.369V67.9637L36.5632 71.516H37.93L34.3412 67.5543L37.7546 64.0312H36.3585L33.369 67.0938V58.944H32.3019V71.516Z" fill="#2F2F2F"/>
<path d="M40.9529 62.5328C41.1478 62.5328 41.3135 62.4646 41.4499 62.3282C41.5864 62.1917 41.6546 62.0261 41.6546 61.8311C41.6546 61.6362 41.5864 61.473 41.4499 61.3414C41.3135 61.205 41.1478 61.1368 40.9529 61.1368C40.758 61.1368 40.5923 61.205 40.4559 61.3414C40.3243 61.473 40.2585 61.6362 40.2585 61.8311C40.2585 62.0261 40.3243 62.1917 40.4559 62.3282C40.5923 62.4646 40.758 62.5328 40.9529 62.5328ZM40.4193 71.516H41.4865V64.0312H40.4193V71.516Z" fill="#2F2F2F"/>
<path d="M44.7111 71.516H45.7783V58.944H44.7111V71.516Z" fill="#2F2F2F"/>
<path d="M52.5699 71.7499C53.3496 71.7499 54.0512 71.5818 54.675 71.2455C55.3036 70.9093 55.8006 70.4415 56.1661 69.8421C56.5315 69.2428 56.7143 68.5533 56.7143 67.7736C56.7143 66.9891 56.5315 66.2996 56.1661 65.7051C55.8006 65.1057 55.3036 64.6379 54.675 64.3017C54.0512 63.9655 53.3496 63.7974 52.5699 63.7974C51.7902 63.7974 51.0861 63.9655 50.4575 64.3017C49.8338 64.6379 49.3392 65.1057 48.9737 65.7051C48.6082 66.2996 48.4255 66.9891 48.4255 67.7736C48.4255 68.5533 48.6082 69.2428 48.9737 69.8421C49.3392 70.4415 49.8338 70.9093 50.4575 71.2455C51.0861 71.5818 51.7902 71.7499 52.5699 71.7499ZM52.5699 70.7997C51.9852 70.7997 51.4638 70.6705 51.0057 70.4123C50.5477 70.154 50.1871 69.7983 49.9239 69.3451C49.6608 68.8871 49.5292 68.3632 49.5292 67.7736C49.5292 67.184 49.6608 66.6626 49.9239 66.2094C50.1871 65.7514 50.5477 65.3932 51.0057 65.135C51.4638 64.8767 51.9852 64.7476 52.5699 64.7476C53.1546 64.7476 53.676 64.8767 54.1341 65.135C54.5921 65.3932 54.9527 65.7514 55.2159 66.2094C55.479 66.6626 55.6106 67.184 55.6106 67.7736C55.6106 68.3632 55.479 68.8871 55.2159 69.3451C54.9527 69.7983 54.5921 70.154 54.1341 70.4123C53.676 70.6705 53.1546 70.7997 52.5699 70.7997ZM54.2949 61.7215C54.4752 61.7215 54.6287 61.6582 54.7554 61.5315C54.8821 61.4048 54.9454 61.2513 54.9454 61.071C54.9454 60.8907 54.8821 60.7372 54.7554 60.6105C54.6287 60.4838 54.4752 60.4204 54.2949 60.4204C54.1146 60.4204 53.9611 60.4838 53.8344 60.6105C53.7077 60.7372 53.6444 60.8907 53.6444 61.071C53.6444 61.2513 53.7077 61.4048 53.8344 61.5315C53.9611 61.6582 54.1146 61.7215 54.2949 61.7215ZM50.8449 61.7215C51.0252 61.7215 51.1787 61.6582 51.3054 61.5315C51.4321 61.4048 51.4954 61.2513 51.4954 61.071C51.4954 60.8907 51.4321 60.7372 51.3054 60.6105C51.1787 60.4838 51.0252 60.4204 50.8449 60.4204C50.6646 60.4204 50.5111 60.4838 50.3844 60.6105C50.2577 60.7372 50.1944 60.8907 50.1944 61.071C50.1944 61.2513 50.2577 61.4048 50.3844 61.5315C50.5111 61.6582 50.6646 61.7215 50.8449 61.7215Z" fill="#2F2F2F"/>
<path d="M61.306 71.7499C62.1198 71.7499 62.7825 71.5306 63.2941 71.092C63.8107 70.6535 64.0689 70.059 64.0689 69.3086C64.0689 68.87 63.9788 68.524 63.7985 68.2706C63.6182 68.0124 63.3648 67.8004 63.0383 67.6347C62.7118 67.4642 62.3317 67.2985 61.8981 67.1377C61.5959 67.0208 61.3133 66.9038 61.0502 66.7869C60.7919 66.6699 60.5824 66.531 60.4216 66.3702C60.2608 66.2045 60.1804 65.995 60.1804 65.7416C60.1804 65.3957 60.3071 65.1155 60.5604 64.9011C60.8187 64.6866 61.1525 64.5794 61.5618 64.5794C62.2294 64.5794 62.7874 64.8743 63.2357 65.4639L63.7254 64.8426C63.433 64.5112 63.1016 64.2554 62.7313 64.0751C62.3658 63.8948 61.9736 63.8047 61.5545 63.8047C61.0965 63.8047 60.6871 63.8924 60.3266 64.0678C59.966 64.2383 59.6833 64.4747 59.4787 64.7768C59.274 65.074 59.1717 65.4151 59.1717 65.8001C59.1717 66.1802 59.2667 66.4945 59.4567 66.743C59.6517 66.9866 59.8977 67.1889 60.195 67.3497C60.4922 67.5105 60.7992 67.6542 61.116 67.7809C61.5204 67.9369 61.8615 68.0757 62.1393 68.1976C62.417 68.3194 62.6265 68.4656 62.7679 68.6361C62.914 68.8067 62.9871 69.043 62.9871 69.3451C62.9871 69.8324 62.8215 70.2174 62.4901 70.5C62.1587 70.7826 61.7616 70.9239 61.2987 70.9239C60.8406 70.9239 60.424 70.7924 60.0488 70.5292C59.6736 70.2612 59.369 69.8884 59.1351 69.4109L58.565 70.0249C58.8281 70.5755 59.196 71.0019 59.6687 71.304C60.1414 71.6013 60.6871 71.7499 61.306 71.7499Z" fill="#2F2F2F"/>
<path d="M68.4081 71.7499C68.8857 71.7499 69.3047 71.6378 69.6653 71.4136L69.3949 70.5658C69.1805 70.7266 68.9271 70.807 68.6347 70.807C68.0159 70.807 67.7064 70.3806 67.7064 69.5278V64.8353H69.5703V64.0312H67.7064V61.2318H66.6393V64.0312H65.8791V64.8353H66.6393V69.5863C66.6393 70.2734 66.7928 70.807 67.0998 71.1871C67.4116 71.5623 67.8478 71.7499 68.4081 71.7499Z" fill="#2F2F2F"/>
<path d="M75.645 71.7499C76.4247 71.7499 77.1264 71.5818 77.7501 71.2455C78.3787 70.9093 78.8757 70.4415 79.2412 69.8421C79.6067 69.2428 79.7894 68.5533 79.7894 67.7736C79.7894 66.9891 79.6067 66.2996 79.2412 65.7051C78.8757 65.1057 78.3787 64.6379 77.7501 64.3017C77.1264 63.9655 76.4247 63.7974 75.645 63.7974C74.8654 63.7974 74.1612 63.9655 73.5326 64.3017C72.9089 64.6379 72.4143 65.1057 72.0489 65.7051C71.6834 66.2996 71.5007 66.9891 71.5007 67.7736C71.5007 68.5533 71.6834 69.2428 72.0489 69.8421C72.4143 70.4415 72.9089 70.9093 73.5326 71.2455C74.1612 71.5818 74.8654 71.7499 75.645 71.7499ZM75.645 70.7997C75.0603 70.7997 74.5389 70.6705 74.0808 70.4123C73.6228 70.154 73.2622 69.7983 72.9991 69.3451C72.7359 68.8871 72.6044 68.3632 72.6044 67.7736C72.6044 67.184 72.7359 66.6626 72.9991 66.2094C73.2622 65.7514 73.6228 65.3932 74.0808 65.135C74.5389 64.8767 75.0603 64.7476 75.645 64.7476C76.2298 64.7476 76.7512 64.8767 77.2092 65.135C77.6673 65.3932 78.0279 65.7514 78.291 66.2094C78.5541 66.6626 78.6857 67.184 78.6857 67.7736C78.6857 68.3632 78.5541 68.8871 78.291 69.3451C78.0279 69.7983 77.6673 70.154 77.2092 70.4123C76.7512 70.6705 76.2298 70.7997 75.645 70.7997ZM77.37 61.7215C77.5503 61.7215 77.7038 61.6582 77.8305 61.5315C77.9572 61.4048 78.0206 61.2513 78.0206 61.071C78.0206 60.8907 77.9572 60.7372 77.8305 60.6105C77.7038 60.4838 77.5503 60.4204 77.37 60.4204C77.1897 60.4204 77.0362 60.4838 76.9095 60.6105C76.7829 60.7372 76.7195 60.8907 76.7195 61.071C76.7195 61.2513 76.7829 61.4048 76.9095 61.5315C77.0362 61.6582 77.1897 61.7215 77.37 61.7215ZM73.92 61.7215C74.1003 61.7215 74.2538 61.6582 74.3805 61.5315C74.5072 61.4048 74.5706 61.2513 74.5706 61.071C74.5706 60.8907 74.5072 60.7372 74.3805 60.6105C74.2538 60.4838 74.1003 60.4204 73.92 60.4204C73.7397 60.4204 73.5862 60.4838 73.4596 60.6105C73.3329 60.7372 73.2695 60.8907 73.2695 61.071C73.2695 61.2513 73.3329 61.4048 73.4596 61.5315C73.5862 61.6582 73.7397 61.7215 73.92 61.7215Z" fill="#2F2F2F"/>
<path d="M82.4369 75.3168H83.504V69.9372C83.8208 70.5024 84.2496 70.9459 84.7905 71.2675C85.3362 71.5891 85.938 71.7499 86.5959 71.7499C87.3122 71.7499 87.9505 71.5769 88.5109 71.2309C89.0762 70.8849 89.5196 70.4123 89.8412 69.8129C90.1677 69.2135 90.3309 68.5338 90.3309 67.7736C90.3309 67.0086 90.1677 66.3288 89.8412 65.7343C89.5147 65.135 89.0688 64.6623 88.5036 64.3163C87.9432 63.9703 87.3024 63.7974 86.5812 63.7974C85.9185 63.7974 85.3143 63.9557 84.7685 64.2725C84.2277 64.5843 83.8061 65.0204 83.504 65.5808V64.0312H82.4369V75.3168ZM86.3473 70.8216C85.787 70.8216 85.2899 70.6925 84.8563 70.4342C84.4226 70.1711 84.0815 69.8105 83.8329 69.3524C83.5844 68.8895 83.4602 68.3632 83.4602 67.7736C83.4602 67.1791 83.5844 66.6529 83.8329 66.1948C84.0815 65.7368 84.4226 65.3786 84.8563 65.1203C85.2899 64.8572 85.787 64.7256 86.3473 64.7256C86.9077 64.7256 87.4023 64.8572 87.8311 65.1203C88.2648 65.3786 88.6059 65.7392 88.8544 66.2021C89.103 66.6602 89.2272 67.1864 89.2272 67.7809C89.2272 68.3705 89.103 68.8944 88.8544 69.3524C88.6059 69.8105 88.2648 70.1711 87.8311 70.4342C87.4023 70.6925 86.9077 70.8216 86.3473 70.8216Z" fill="#2F2F2F"/>
<path d="M96.2113 71.7499C96.874 71.7499 97.4758 71.5891 98.0167 71.2675C98.5575 70.9459 98.9888 70.5024 99.3104 69.9372V71.516H100.378V64.0312H99.3104V65.5881C99.0278 65.0277 98.6087 64.5892 98.0532 64.2725C97.5026 63.9557 96.8886 63.7974 96.2113 63.7974C95.4998 63.7974 94.8615 63.9703 94.2962 64.3163C93.7358 64.6574 93.2924 65.1276 92.9659 65.727C92.6443 66.3264 92.4835 67.0061 92.4835 67.7663C92.4835 68.5362 92.6467 69.2209 92.9732 69.8202C93.3046 70.4196 93.7505 70.8923 94.3108 71.2382C94.8712 71.5793 95.5047 71.7499 96.2113 71.7499ZM96.4744 70.8216C95.9189 70.8216 95.4218 70.69 94.9833 70.4269C94.5496 70.1638 94.2085 69.8032 93.96 69.3451C93.7115 68.8871 93.5872 68.3632 93.5872 67.7736C93.5872 67.1791 93.7115 66.6529 93.96 66.1948C94.2085 65.7368 94.5496 65.3786 94.9833 65.1203C95.417 64.8572 95.914 64.7256 96.4744 64.7256C97.0348 64.7256 97.5318 64.8572 97.9655 65.1203C98.3992 65.3786 98.7378 65.7368 98.9815 66.1948C99.23 66.6529 99.3543 67.1791 99.3543 67.7736C99.3543 68.3632 99.23 68.8895 98.9815 69.3524C98.733 69.8105 98.3919 70.1711 97.9582 70.4342C97.5294 70.6925 97.0348 70.8216 96.4744 70.8216Z" fill="#2F2F2F"/>
<path d="M103.597 71.516H104.664V58.944H103.597V71.516Z" fill="#2F2F2F"/>
<path d="M110.325 71.516H111.027L114.667 64.0312H113.417L110.676 69.9956L107.942 64.0312H106.692L110.325 71.516Z" fill="#2F2F2F"/>
<path d="M120.243 71.7499C120.989 71.7499 121.666 71.5891 122.275 71.2675C122.889 70.9459 123.374 70.4951 123.73 69.9152L122.94 69.4913C122.317 70.4074 121.432 70.8655 120.287 70.8655C119.692 70.8655 119.164 70.7388 118.701 70.4854C118.238 70.2271 117.875 69.8738 117.612 69.4255C117.354 68.9723 117.224 68.4558 117.224 67.8759H123.964C123.973 67.8223 123.978 67.7761 123.978 67.7371C123.983 67.6981 123.985 67.6518 123.985 67.5982C123.966 66.8526 123.786 66.1948 123.445 65.6247C123.108 65.0497 122.65 64.6014 122.07 64.2798C121.495 63.9582 120.838 63.7974 120.097 63.7974C119.556 63.7974 119.047 63.8997 118.569 64.1043C118.097 64.309 117.68 64.5941 117.319 64.9595C116.959 65.325 116.676 65.7514 116.472 66.2387C116.267 66.7211 116.165 67.2425 116.165 67.8029C116.165 68.5484 116.34 69.2209 116.691 69.8202C117.047 70.4147 117.531 70.8849 118.145 71.2309C118.759 71.5769 119.459 71.7499 120.243 71.7499ZM117.283 67.0719C117.346 66.5993 117.507 66.1851 117.765 65.8293C118.028 65.4687 118.362 65.1886 118.767 64.9888C119.171 64.7841 119.619 64.6818 120.112 64.6818C120.594 64.6818 121.035 64.7841 121.435 64.9888C121.834 65.1934 122.165 65.4761 122.429 65.8366C122.692 66.1972 122.855 66.609 122.918 67.0719H117.283Z" fill="#2F2F2F"/>
<path d="M126.544 71.516H127.611V58.944H126.544V71.516Z" fill="#2F2F2F"/>
<path d="M133.855 71.7499C134.99 71.7499 135.801 71.4965 136.289 70.9897C136.776 70.4781 137.019 69.6204 137.019 68.4168V64.0312H135.952V68.2268C135.952 69.1721 135.791 69.847 135.47 70.2515C135.153 70.651 134.615 70.8508 133.855 70.8508C133.099 70.8508 132.561 70.651 132.239 70.2515C131.918 69.847 131.757 69.1721 131.757 68.2268V64.0312H130.69V68.4168C130.69 69.6204 130.933 70.4781 131.421 70.9897C131.908 71.4965 132.719 71.7499 133.855 71.7499Z" fill="#2F2F2F"/>
<path d="M141.902 71.7499C142.38 71.7499 142.799 71.6378 143.159 71.4136L142.889 70.5658C142.674 70.7266 142.421 70.807 142.129 70.807C141.51 70.807 141.2 70.3806 141.2 69.5278V64.8353H143.064V64.0312H141.2V61.2318H140.133V64.0312H139.373V64.8353H140.133V69.5863C140.133 70.2734 140.287 70.807 140.594 71.1871C140.906 71.5623 141.342 71.7499 141.902 71.7499Z" fill="#2F2F2F"/>
<path d="M0 49.715C0 50.1495 0.352252 50.5017 0.786777 50.5017H18.5492C21.5392 50.5017 24.1305 49.9944 26.3231 48.9796C28.5339 47.9467 30.2372 46.4789 31.4332 44.5762C32.6473 42.6554 33.2544 40.363 33.2544 37.6993C33.2544 34.6368 32.4389 32.1633 30.808 30.2787C29.6531 28.9442 28.822 27.9549 27.3413 27.311C26.6517 27.0111 26.4754 25.9133 27.0803 25.4665C29.4643 23.7054 30.6564 21.4718 30.6564 17.8191C30.6564 14.0499 28.9673 10.3184 26.5029 8.45198C24.0565 6.58551 21.1429 5.65228 16.8482 5.65228H0.786777C0.352252 5.65228 0 6.00453 0 6.43906V49.715ZM11.7357 23.5324C11.3011 23.5324 10.9489 23.1802 10.9489 22.7457V16.3393C10.9489 15.9048 11.3011 15.5525 11.7357 15.5525H12.0361C18.5193 15.5525 19.604 16.6269 19.604 19.6894C19.604 22.8605 16.1677 23.5324 12.0361 23.5324H11.7357ZM11.7357 41.0312C11.3011 41.0312 10.9489 40.6789 10.9489 40.2444V33.3435C10.9489 32.909 11.3011 32.5567 11.7357 32.5567H13.9389C16.3489 32.5567 18.1792 32.5529 19.4295 33.4589C20.6799 34.365 21.305 35.6697 21.305 37.3731C21.305 40.7255 18.8496 41.0312 13.9389 41.0312H11.7357Z" fill="#2F2F2F"/>
<path d="M33.1728 49.3776C32.925 49.8997 33.3057 50.5017 33.8836 50.5017H43.7521C43.8625 50.5017 43.9717 50.4785 44.0726 50.4335L47.1542 49.0586L62.1642 43.3609C62.5291 43.2224 62.9402 43.3722 63.1304 43.7129L66.6953 50.0985C66.8343 50.3475 67.0971 50.5017 67.3822 50.5017H77.3955C77.9777 50.5017 78.3582 49.8913 78.1019 49.3686L56.8807 6.09266C56.7485 5.82312 56.4745 5.65228 56.1743 5.65228H54.4212C54.1174 5.65228 53.8407 5.82724 53.7104 6.10173L33.1728 49.3776ZM51.9128 37.1708C51.2488 37.4432 50.5967 36.7573 50.9023 36.1079L54.7772 27.8737C55.0662 27.2596 55.9449 27.275 56.2123 27.8988L58.6341 33.5497C58.8071 33.9535 58.616 34.4208 58.2096 34.5875L51.9128 37.1708Z" fill="#2F2F2F"/>
<path d="M93.5253 50.9147C96.9864 50.9147 99.9945 50.8189 102.55 49.7135C105.105 48.59 107.08 46.9772 108.475 44.8752C109.889 42.7731 110.595 40.2453 110.595 37.2915C110.595 34.7365 109.595 32.6254 108.508 30.9582C107.438 29.273 105.862 27.8052 103.778 26.5548C101.712 25.3045 99.1934 24.0451 96.2216 22.7766C94.2826 21.9612 93.7466 21.2816 92.7862 20.738C91.8258 20.1763 91.3456 19.3246 91.3456 18.183C91.3456 17.1213 91.742 16.6536 92.5349 16.009C92.6282 15.9332 92.7386 15.8803 92.8565 15.8574C95.3263 15.3786 97.6683 16.2267 99.4885 16.882C99.5672 16.9103 99.6407 16.9513 99.7071 17.0022C100.855 17.8833 101.698 18.259 102.696 18.8731C103.033 19.0806 103.474 19.027 103.736 18.7305L109.682 12.0123C109.991 11.6637 109.934 11.1214 109.572 10.8288C108.383 9.86766 106.655 8.36488 105.404 7.84348C103.881 7.20924 102.278 6.24502 100.593 5.86448C98.9254 5.48394 96.3899 5.29367 94.8134 5.29367C91.7872 5.29367 89.1324 5.94603 86.8492 7.25074C84.5841 8.53733 83.2832 9.76575 82.0328 11.8497C80.7825 13.9155 80.1573 16.1081 80.1573 18.4276C80.1573 21.1639 80.9909 23.9221 82.658 25.7885C84.3251 27.6369 86.409 29.1318 88.9097 30.2735C91.1386 31.2882 92.9688 32.158 94.4004 32.8829C95.8501 33.6077 96.9192 33.8939 97.6078 34.6549C98.2964 35.416 99.0975 36.3674 99.0975 37.509C99.0975 38.9043 98.1605 39.4894 97.2001 40.178C96.2578 40.8666 95.4371 40.7541 93.8243 40.7541C90.2723 40.7541 88.1313 38.3794 85.5854 36.3462C85.2555 36.0828 84.7776 36.1416 84.5109 36.4688L79.1417 43.0553C78.8723 43.3858 78.9157 43.8716 79.2396 44.1491C83.7741 48.0338 87.4597 50.9147 93.5253 50.9147Z" fill="#2F2F2F"/>
<path d="M114.682 49.715C114.682 50.1495 115.035 50.5017 115.469 50.5017H143.644C144.079 50.5017 144.431 50.1495 144.431 49.715V41.6443C144.431 41.2098 144.079 40.8576 143.644 40.8576H126.26C125.826 40.8576 125.473 40.5053 125.473 40.0708V34.7736C125.473 34.3391 125.826 33.9868 126.26 33.9868H135.683C136.117 33.9868 136.47 33.6346 136.47 33.2V24.2158C136.47 23.7812 136.117 23.429 135.683 23.429H126.717C126.283 23.429 125.93 23.0767 125.93 22.6422V18.3674C125.93 17.9329 126.283 17.5806 126.717 17.5806H143.644C144.079 17.5806 144.431 17.2284 144.431 16.7938V6.43906C144.431 6.00454 144.079 5.65228 143.645 5.65228C142.668 5.65228 141.602 5.65228 141.16 5.65228C141.022 5.65228 140.887 5.6886 140.768 5.75757L115.076 20.5806C114.832 20.7211 114.682 20.9809 114.682 21.2621V49.715Z" fill="#2F2F2F"/>
<rect x="155.281" width="58.2303" height="58.2303" rx="1" fill="#004DC0"/>
<path d="M166.699 17.2535C168.293 17.2535 169.652 16.6827 170.776 15.5411C171.917 14.3995 172.488 13.0313 172.488 11.4367C172.488 9.84204 171.917 8.48297 170.776 7.35947C169.652 6.21784 168.293 5.64703 166.699 5.64703C165.104 5.64703 163.736 6.21784 162.594 7.35947C161.471 8.48297 160.909 9.84204 160.909 11.4367C160.909 13.0313 161.471 14.3995 162.594 15.5411C163.736 16.6827 165.104 17.2535 166.699 17.2535ZM161.752 49.7784C161.752 50.4302 162.28 50.9586 162.932 50.9586H170.493C171.144 50.9586 171.673 50.4302 171.673 49.7784V24.3049C171.673 23.6531 171.144 23.1247 170.493 23.1247H162.932C162.28 23.1247 161.752 23.6531 161.752 24.3049V49.7784Z" fill="white"/>
<path d="M187.206 49.7784C187.206 50.4302 187.735 50.9586 188.386 50.9586H196.518C197.17 50.9586 197.698 50.4302 197.698 49.7784V16.5038C197.698 15.852 198.227 15.3236 198.878 15.3236H207.037C207.689 15.3236 208.218 14.7953 208.218 14.1435V7.28928C208.218 6.6375 207.689 6.10912 207.037 6.10912H177.867C177.215 6.10912 176.687 6.6375 176.687 7.28928V14.1435C176.687 14.7953 177.215 15.3236 177.867 15.3236H186.026C186.678 15.3236 187.206 15.852 187.206 16.5038V49.7784Z" fill="white"/>
</svg>
