<svg width="218" height="79" viewBox="0 0 218 79" fill="none" xmlns="http://www.w3.org/2000/svg">
<g filter="url(#filter0_d_3:176)">
<path d="M1.35767 72.1991H2.46868V66.644H9.05437V72.1991H10.1581V60.1388H9.05437V65.6646H2.46868V60.1388H1.35767V72.1991Z" fill="white"/>
<path d="M17.2787 72.433C18.0243 72.433 18.7016 72.2722 19.3107 71.9506C19.9247 71.629 20.4095 71.1782 20.7652 70.5984L19.9758 70.1744C19.3521 71.0905 18.4677 71.5486 17.3226 71.5486C16.7281 71.5486 16.1994 71.4219 15.7364 71.1685C15.2735 70.9102 14.9105 70.557 14.6474 70.1087C14.3891 69.6555 14.26 69.139 14.26 68.5591H20.9991C21.0089 68.5055 21.0138 68.4592 21.0138 68.4202C21.0186 68.3812 21.0211 68.3349 21.0211 68.2813C21.0016 67.5358 20.8213 66.8779 20.4802 66.3078C20.144 65.7328 19.6859 65.2845 19.106 64.9629C18.531 64.6413 17.8732 64.4805 17.1325 64.4805C16.5916 64.4805 16.0824 64.5828 15.6049 64.7875C15.1322 64.9921 14.7156 65.2772 14.355 65.6427C13.9944 66.0081 13.7118 66.4345 13.5071 66.9218C13.3024 67.4042 13.2001 67.9256 13.2001 68.486C13.2001 69.2315 13.3755 69.904 13.7264 70.5034C14.0821 71.0978 14.567 71.5681 15.1809 71.9141C15.7949 72.26 16.4942 72.433 17.2787 72.433ZM14.3184 67.7551C14.3818 67.2824 14.5426 66.8682 14.8009 66.5125C15.064 66.1519 15.3978 65.8717 15.8022 65.6719C16.2067 65.4672 16.655 65.3649 17.1471 65.3649C17.6296 65.3649 18.0705 65.4672 18.4701 65.6719C18.8697 65.8766 19.2011 66.1592 19.4642 66.5198C19.7273 66.8804 19.8906 67.2921 19.9539 67.7551H14.3184Z" fill="white"/>
<path d="M23.5796 72.1991H24.6467V67.3238C24.6467 66.973 24.732 66.6489 24.9025 66.3517C25.078 66.0496 25.3289 65.8083 25.6554 65.628C25.9819 65.4429 26.3742 65.3503 26.8322 65.3503C27.4852 65.3503 27.9919 65.555 28.3525 65.9643C28.718 66.3736 28.9007 66.9632 28.9007 67.7331V72.1991H29.9679V67.5285C29.9679 66.5636 29.7169 65.8157 29.215 65.2845C28.718 64.7485 28.0358 64.4805 27.1684 64.4805C26.5496 64.4805 26.0233 64.6023 25.5896 64.846C25.1608 65.0896 24.8465 65.3868 24.6467 65.7377V64.7144H23.5796V72.1991Z" fill="white"/>
<path d="M33.0463 72.1991H34.1134V68.6468L37.3076 72.1991H38.6744L35.0856 68.2375L38.499 64.7144H37.1029L34.1134 67.777V59.6271H33.0463V72.1991Z" fill="white"/>
<path d="M41.6973 63.216C41.8922 63.216 42.0579 63.1478 42.1943 63.0113C42.3307 62.8749 42.399 62.7092 42.399 62.5143C42.399 62.3194 42.3307 62.1561 42.1943 62.0246C42.0579 61.8881 41.8922 61.8199 41.6973 61.8199C41.5024 61.8199 41.3367 61.8881 41.2002 62.0246C41.0687 62.1561 41.0029 62.3194 41.0029 62.5143C41.0029 62.7092 41.0687 62.8749 41.2002 63.0113C41.3367 63.1478 41.5024 63.216 41.6973 63.216ZM41.1637 72.1991H42.2309V64.7144H41.1637V72.1991Z" fill="white"/>
<path d="M45.4555 72.1991H46.5227V59.6271H45.4555V72.1991Z" fill="white"/>
<path d="M53.3143 72.433C54.0939 72.433 54.7956 72.2649 55.4194 71.9287C56.048 71.5924 56.545 71.1246 56.9105 70.5253C57.2759 69.9259 57.4587 69.2364 57.4587 68.4567C57.4587 67.6722 57.2759 66.9827 56.9105 66.3882C56.545 65.7889 56.048 65.3211 55.4194 64.9848C54.7956 64.6486 54.0939 64.4805 53.3143 64.4805C52.5346 64.4805 51.8305 64.6486 51.2019 64.9848C50.5782 65.3211 50.0836 65.7889 49.7181 66.3882C49.3526 66.9827 49.1699 67.6722 49.1699 68.4567C49.1699 69.2364 49.3526 69.9259 49.7181 70.5253C50.0836 71.1246 50.5782 71.5924 51.2019 71.9287C51.8305 72.2649 52.5346 72.433 53.3143 72.433ZM53.3143 71.4828C52.7295 71.4828 52.2081 71.3537 51.7501 71.0954C51.292 70.8371 50.9314 70.4814 50.6683 70.0282C50.4052 69.5702 50.2736 69.0464 50.2736 68.4567C50.2736 67.8671 50.4052 67.3457 50.6683 66.8926C50.9314 66.4345 51.292 66.0764 51.7501 65.8181C52.2081 65.5598 52.7295 65.4307 53.3143 65.4307C53.899 65.4307 54.4204 65.5598 54.8785 65.8181C55.3365 66.0764 55.6971 66.4345 55.9602 66.8926C56.2234 67.3457 56.3549 67.8671 56.3549 68.4567C56.3549 69.0464 56.2234 69.5702 55.9602 70.0282C55.6971 70.4814 55.3365 70.8371 54.8785 71.0954C54.4204 71.3537 53.899 71.4828 53.3143 71.4828ZM55.0393 62.4046C55.2196 62.4046 55.3731 62.3413 55.4998 62.2146C55.6265 62.0879 55.6898 61.9344 55.6898 61.7541C55.6898 61.5738 55.6265 61.4203 55.4998 61.2936C55.3731 61.1669 55.2196 61.1036 55.0393 61.1036C54.859 61.1036 54.7055 61.1669 54.5788 61.2936C54.4521 61.4203 54.3887 61.5738 54.3887 61.7541C54.3887 61.9344 54.4521 62.0879 54.5788 62.2146C54.7055 62.3413 54.859 62.4046 55.0393 62.4046ZM51.5893 62.4046C51.7696 62.4046 51.9231 62.3413 52.0498 62.2146C52.1765 62.0879 52.2398 61.9344 52.2398 61.7541C52.2398 61.5738 52.1765 61.4203 52.0498 61.2936C51.9231 61.1669 51.7696 61.1036 51.5893 61.1036C51.409 61.1036 51.2555 61.1669 51.1288 61.2936C51.0021 61.4203 50.9388 61.5738 50.9388 61.7541C50.9388 61.9344 51.0021 62.0879 51.1288 62.2146C51.2555 62.3413 51.409 62.4046 51.5893 62.4046Z" fill="white"/>
<path d="M62.0504 72.433C62.8642 72.433 63.5269 72.2137 64.0385 71.7752C64.555 71.3366 64.8133 70.7421 64.8133 69.9917C64.8133 69.5531 64.7232 69.2072 64.5429 68.9538C64.3626 68.6955 64.1092 68.4836 63.7827 68.3179C63.4562 68.1473 63.0761 67.9816 62.6424 67.8208C62.3403 67.7039 62.0577 67.5869 61.7946 67.47C61.5363 67.353 61.3268 67.2142 61.166 67.0534C61.0051 66.8877 60.9247 66.6782 60.9247 66.4248C60.9247 66.0788 61.0514 65.7986 61.3048 65.5842C61.5631 65.3698 61.8969 65.2626 62.3062 65.2626C62.9738 65.2626 63.5317 65.5574 63.98 66.147L64.4698 65.5257C64.1774 65.1944 63.846 64.9385 63.4757 64.7582C63.1102 64.5779 62.718 64.4878 62.2989 64.4878C61.8409 64.4878 61.4315 64.5755 61.0709 64.7509C60.7103 64.9215 60.4277 65.1578 60.2231 65.4599C60.0184 65.7572 59.9161 66.0983 59.9161 66.4832C59.9161 66.8633 60.0111 67.1776 60.2011 67.4261C60.396 67.6698 60.6421 67.872 60.9394 68.0328C61.2366 68.1936 61.5436 68.3374 61.8603 68.4641C62.2648 68.62 62.6059 68.7589 62.8836 68.8807C63.1614 69.0025 63.3709 69.1487 63.5122 69.3192C63.6584 69.4898 63.7315 69.7261 63.7315 70.0282C63.7315 70.5155 63.5658 70.9005 63.2345 71.1831C62.9031 71.4657 62.506 71.6071 62.0431 71.6071C61.585 71.6071 61.1684 71.4755 60.7932 71.2124C60.418 70.9444 60.1134 70.5716 59.8795 70.094L59.3094 70.708C59.5725 71.2587 59.9404 71.685 60.4131 71.9871C60.8858 72.2844 61.4315 72.433 62.0504 72.433Z" fill="white"/>
<path d="M69.1525 72.433C69.6301 72.433 70.0491 72.3209 70.4097 72.0968L70.1393 71.2489C69.9249 71.4097 69.6715 71.4901 69.3791 71.4901C68.7603 71.4901 68.4508 71.0637 68.4508 70.211V65.5184H70.3147V64.7144H68.4508V61.9149H67.3837V64.7144H66.6235V65.5184H67.3837V70.2695C67.3837 70.9565 67.5372 71.4901 67.8442 71.8702C68.156 72.2454 68.5921 72.433 69.1525 72.433Z" fill="white"/>
<path d="M76.3894 72.433C77.1691 72.433 77.8708 72.2649 78.4945 71.9287C79.1231 71.5924 79.6201 71.1246 79.9856 70.5253C80.3511 69.9259 80.5338 69.2364 80.5338 68.4567C80.5338 67.6722 80.3511 66.9827 79.9856 66.3882C79.6201 65.7889 79.1231 65.3211 78.4945 64.9848C77.8708 64.6486 77.1691 64.4805 76.3894 64.4805C75.6098 64.4805 74.9056 64.6486 74.277 64.9848C73.6533 65.3211 73.1587 65.7889 72.7932 66.3882C72.4278 66.9827 72.245 67.6722 72.245 68.4567C72.245 69.2364 72.4278 69.9259 72.7932 70.5253C73.1587 71.1246 73.6533 71.5924 74.277 71.9287C74.9056 72.2649 75.6098 72.433 76.3894 72.433ZM76.3894 71.4828C75.8047 71.4828 75.2833 71.3537 74.8252 71.0954C74.3672 70.8371 74.0066 70.4814 73.7434 70.0282C73.4803 69.5702 73.3487 69.0464 73.3487 68.4567C73.3487 67.8671 73.4803 67.3457 73.7434 66.8926C74.0066 66.4345 74.3672 66.0764 74.8252 65.8181C75.2833 65.5598 75.8047 65.4307 76.3894 65.4307C76.9742 65.4307 77.4956 65.5598 77.9536 65.8181C78.4117 66.0764 78.7723 66.4345 79.0354 66.8926C79.2985 67.3457 79.4301 67.8671 79.4301 68.4567C79.4301 69.0464 79.2985 69.5702 79.0354 70.0282C78.7723 70.4814 78.4117 70.8371 77.9536 71.0954C77.4956 71.3537 76.9742 71.4828 76.3894 71.4828ZM78.1144 62.4046C78.2947 62.4046 78.4482 62.3413 78.5749 62.2146C78.7016 62.0879 78.7649 61.9344 78.7649 61.7541C78.7649 61.5738 78.7016 61.4203 78.5749 61.2936C78.4482 61.1669 78.2947 61.1036 78.1144 61.1036C77.9341 61.1036 77.7806 61.1669 77.6539 61.2936C77.5272 61.4203 77.4639 61.5738 77.4639 61.7541C77.4639 61.9344 77.5272 62.0879 77.6539 62.2146C77.7806 62.3413 77.9341 62.4046 78.1144 62.4046ZM74.6644 62.4046C74.8447 62.4046 74.9982 62.3413 75.1249 62.2146C75.2516 62.0879 75.3149 61.9344 75.3149 61.7541C75.3149 61.5738 75.2516 61.4203 75.1249 61.2936C74.9982 61.1669 74.8447 61.1036 74.6644 61.1036C74.4841 61.1036 74.3306 61.1669 74.2039 61.2936C74.0772 61.4203 74.0139 61.5738 74.0139 61.7541C74.0139 61.9344 74.0772 62.0879 74.2039 62.2146C74.3306 62.3413 74.4841 62.4046 74.6644 62.4046Z" fill="white"/>
<path d="M83.1813 76H84.2484V70.6203C84.5651 71.1856 84.994 71.629 85.5349 71.9506C86.0806 72.2722 86.6824 72.433 87.3403 72.433C88.0566 72.433 88.6949 72.26 89.2553 71.9141C89.8205 71.5681 90.264 71.0954 90.5856 70.496C90.9121 69.8967 91.0753 69.2169 91.0753 68.4567C91.0753 67.6917 90.9121 67.0119 90.5856 66.4175C90.2591 65.8181 89.8132 65.3454 89.248 64.9994C88.6876 64.6535 88.0468 64.4805 87.3256 64.4805C86.6629 64.4805 86.0587 64.6389 85.5129 64.9556C84.972 65.2675 84.5505 65.7036 84.2484 66.264V64.7144H83.1813V76ZM87.0917 71.5047C86.5314 71.5047 86.0343 71.3756 85.6006 71.1173C85.167 70.8542 84.8259 70.4936 84.5773 70.0356C84.3288 69.5726 84.2046 69.0464 84.2046 68.4567C84.2046 67.8623 84.3288 67.336 84.5773 66.8779C84.8259 66.4199 85.167 66.0617 85.6006 65.8035C86.0343 65.5403 86.5314 65.4088 87.0917 65.4088C87.6521 65.4088 88.1467 65.5403 88.5755 65.8035C89.0092 66.0617 89.3503 66.4223 89.5988 66.8852C89.8473 67.3433 89.9716 67.8696 89.9716 68.4641C89.9716 69.0537 89.8473 69.5775 89.5988 70.0356C89.3503 70.4936 89.0092 70.8542 88.5755 71.1173C88.1467 71.3756 87.6521 71.5047 87.0917 71.5047Z" fill="white"/>
<path d="M96.9556 72.433C97.6183 72.433 98.2201 72.2722 98.761 71.9506C99.3019 71.629 99.7332 71.1856 100.055 70.6203V72.1991H101.122V64.7144H100.055V66.2713C99.7722 65.7109 99.3531 65.2723 98.7976 64.9556C98.2469 64.6389 97.633 64.4805 96.9556 64.4805C96.2442 64.4805 95.6059 64.6535 95.0406 64.9994C94.4802 65.3405 94.0368 65.8108 93.7103 66.4101C93.3887 67.0095 93.2279 67.6893 93.2279 68.4494C93.2279 69.2194 93.3911 69.904 93.7176 70.5034C94.049 71.1027 94.4948 71.5754 95.0552 71.9214C95.6156 72.2625 96.2491 72.433 96.9556 72.433ZM97.2188 71.5047C96.6633 71.5047 96.1662 71.3732 95.7277 71.11C95.294 70.8469 94.9529 70.4863 94.7044 70.0282C94.4558 69.5702 94.3316 69.0464 94.3316 68.4567C94.3316 67.8623 94.4558 67.336 94.7044 66.8779C94.9529 66.4199 95.294 66.0617 95.7277 65.8035C96.1614 65.5403 96.6584 65.4088 97.2188 65.4088C97.7792 65.4088 98.2762 65.5403 98.7099 65.8035C99.1436 66.0617 99.4822 66.4199 99.7259 66.8779C99.9744 67.336 100.099 67.8623 100.099 68.4567C100.099 69.0464 99.9744 69.5726 99.7259 70.0356C99.4773 70.4936 99.1362 70.8542 98.7026 71.1173C98.2738 71.3756 97.7792 71.5047 97.2188 71.5047Z" fill="white"/>
<path d="M104.342 72.1991H105.409V59.6271H104.342V72.1991Z" fill="white"/>
<path d="M111.07 72.1991H111.771L115.411 64.7144H114.161L111.42 70.6788L108.687 64.7144H107.437L111.07 72.1991Z" fill="white"/>
<path d="M120.988 72.433C121.733 72.433 122.41 72.2722 123.019 71.9506C123.633 71.629 124.118 71.1782 124.474 70.5984L123.685 70.1744C123.061 71.0905 122.176 71.5486 121.031 71.5486C120.437 71.5486 119.908 71.4219 119.445 71.1685C118.982 70.9102 118.619 70.557 118.356 70.1087C118.098 69.6555 117.969 69.139 117.969 68.5591H124.708C124.718 68.5055 124.723 68.4592 124.723 68.4202C124.727 68.3812 124.73 68.3349 124.73 68.2813C124.71 67.5358 124.53 66.8779 124.189 66.3078C123.853 65.7328 123.395 65.2845 122.815 64.9629C122.24 64.6413 121.582 64.4805 120.841 64.4805C120.3 64.4805 119.791 64.5828 119.314 64.7875C118.841 64.9921 118.424 65.2772 118.064 65.6427C117.703 66.0081 117.421 66.4345 117.216 66.9218C117.011 67.4042 116.909 67.9256 116.909 68.486C116.909 69.2315 117.084 69.904 117.435 70.5034C117.791 71.0978 118.276 71.5681 118.89 71.9141C119.504 72.26 120.203 72.433 120.988 72.433ZM118.027 67.7551C118.091 67.2824 118.251 66.8682 118.51 66.5125C118.773 66.1519 119.107 65.8717 119.511 65.6719C119.915 65.4672 120.364 65.3649 120.856 65.3649C121.338 65.3649 121.779 65.4672 122.179 65.6719C122.578 65.8766 122.91 66.1592 123.173 66.5198C123.436 66.8804 123.599 67.2921 123.663 67.7551H118.027Z" fill="white"/>
<path d="M127.288 72.1991H128.356V59.6271H127.288V72.1991Z" fill="white"/>
<path d="M134.599 72.433C135.734 72.433 136.546 72.1796 137.033 71.6728C137.52 71.1612 137.764 70.3036 137.764 69.1V64.7144H136.697V68.9099C136.697 69.8553 136.536 70.5302 136.214 70.9346C135.898 71.3342 135.359 71.534 134.599 71.534C133.844 71.534 133.305 71.3342 132.984 70.9346C132.662 70.5302 132.501 69.8553 132.501 68.9099V64.7144H131.434V69.1C131.434 70.3036 131.678 71.1612 132.165 71.6728C132.652 72.1796 133.464 72.433 134.599 72.433Z" fill="white"/>
<path d="M142.646 72.433C143.124 72.433 143.543 72.3209 143.904 72.0968L143.633 71.2489C143.419 71.4097 143.165 71.4901 142.873 71.4901C142.254 71.4901 141.945 71.0637 141.945 70.211V65.5184H143.809V64.7144H141.945V61.9149H140.878V64.7144H140.117V65.5184H140.878V70.2695C140.878 70.9565 141.031 71.4901 141.338 71.8702C141.65 72.2454 142.086 72.433 142.646 72.433Z" fill="white"/>
<path d="M0.744385 50.3981C0.744385 50.8327 1.09664 51.1849 1.53116 51.1849H19.2936C22.2835 51.1849 24.8749 50.6775 27.0675 49.6627C29.2783 48.6298 30.9816 47.162 32.1776 45.2593C33.3917 43.3385 33.9988 41.0462 33.9988 38.3824C33.9988 35.32 33.1833 32.8465 31.5524 30.9619C30.3975 29.6273 29.5664 28.6381 28.0857 27.9941C27.3961 27.6943 27.2198 26.5964 27.8246 26.1497C30.2087 24.3886 31.4008 22.1549 31.4008 18.5022C31.4008 14.7331 29.7117 11.0016 27.2472 9.13514C24.8009 7.26868 21.8872 6.33545 17.5926 6.33545H1.53116C1.09664 6.33545 0.744385 6.6877 0.744385 7.12223V50.3981ZM12.48 24.2156C12.0455 24.2156 11.6933 23.8634 11.6933 23.4288V17.0225C11.6933 16.5879 12.0455 16.2357 12.48 16.2357H12.7805C19.2637 16.2357 20.3484 17.3101 20.3484 20.3725C20.3484 23.5437 16.9121 24.2156 12.7805 24.2156H12.48ZM12.48 41.7143C12.0455 41.7143 11.6933 41.3621 11.6933 40.9276V34.0266C11.6933 33.5921 12.0455 33.2399 12.48 33.2399H14.6832C17.0933 33.2399 18.9235 33.2361 20.1739 34.1421C21.4242 35.0482 22.0494 36.3529 22.0494 38.0563C22.0494 41.4086 19.594 41.7143 14.6832 41.7143H12.48Z" fill="white"/>
<path d="M33.9171 50.0608C33.6694 50.5828 34.0501 51.1849 34.6279 51.1849H44.4964C44.6069 51.1849 44.7161 51.1616 44.817 51.1166L47.8986 49.7418L62.9086 44.044C63.2734 43.9056 63.6846 44.0554 63.8748 44.3961L67.4397 50.7816C67.5787 51.0306 67.8415 51.1849 68.1266 51.1849H78.1398C78.7221 51.1849 79.1026 50.5745 78.8463 50.0517L57.6251 6.77582C57.4929 6.50628 57.2188 6.33545 56.9186 6.33545H55.1656C54.8618 6.33545 54.5851 6.5104 54.4548 6.7849L33.9171 50.0608ZM52.6572 37.854C51.9932 38.1264 51.3411 37.4404 51.6467 36.7911L55.5216 28.5569C55.8106 27.9428 56.6893 27.9582 56.9567 28.5819L59.3785 34.2329C59.5515 34.6367 59.3604 35.1039 58.9539 35.2707L52.6572 37.854Z" fill="white"/>
<path d="M94.2697 51.5979C97.7308 51.5979 100.739 51.502 103.294 50.3966C105.849 49.2731 107.824 47.6604 109.22 45.5583C110.633 43.4563 111.34 40.9284 111.34 37.9747C111.34 35.4196 110.339 33.3085 109.252 31.6414C108.183 29.9562 106.606 28.4884 104.522 27.238C102.457 25.9877 99.9378 24.7283 96.966 23.4598C95.027 22.6443 94.491 21.9648 93.5306 21.4212C92.5702 20.8594 92.09 20.0077 92.09 18.8661C92.09 17.8044 92.4864 17.3368 93.2793 16.6922C93.3725 16.6164 93.4829 16.5635 93.6009 16.5406C96.0707 16.0618 98.4127 16.9098 100.233 17.5652C100.312 17.5935 100.385 17.6344 100.451 17.6853C101.599 18.5665 102.442 18.9422 103.44 19.5562C103.777 19.7638 104.218 19.7102 104.481 19.4136L110.427 12.6955C110.735 12.3469 110.679 11.8046 110.317 11.512C109.127 10.5508 107.399 9.04805 106.148 8.52664C104.626 7.89241 103.022 6.92819 101.337 6.54765C99.6698 6.16711 97.1343 5.97684 95.5578 5.97684C92.5316 5.97684 89.8768 6.62919 87.5936 7.93391C85.3285 9.2205 84.0276 10.4489 82.7772 12.5328C81.5269 14.5986 80.9017 16.7913 80.9017 19.1107C80.9017 21.847 81.7352 24.6052 83.4024 26.4717C85.0695 28.32 87.1534 29.815 89.6541 30.9566C91.883 31.9714 93.7132 32.8412 95.1448 33.566C96.5945 34.2909 97.6636 34.577 98.3522 35.3381C99.0408 36.0992 99.8419 37.0505 99.8419 38.1922C99.8419 39.5875 98.9049 40.1726 97.9445 40.8612C97.0022 41.5498 96.1815 41.4373 94.5687 41.4373C91.0166 41.4373 88.8757 39.0626 86.3298 37.0294C85.9999 36.7659 85.522 36.8247 85.2553 37.152L79.8861 43.7385C79.6167 44.069 79.6601 44.5548 79.984 44.8322C84.5184 48.717 88.204 51.5979 94.2697 51.5979Z" fill="white"/>
<path d="M115.427 50.3981C115.427 50.8327 115.779 51.1849 116.214 51.1849H144.389C144.823 51.1849 145.176 50.8327 145.176 50.3981V42.3275C145.176 41.893 144.823 41.5407 144.389 41.5407H127.005C126.57 41.5407 126.218 41.1885 126.218 40.754V35.4568C126.218 35.0222 126.57 34.67 127.005 34.67H136.427C136.862 34.67 137.214 34.3177 137.214 33.8832V24.8989C137.214 24.4644 136.862 24.1121 136.427 24.1121H127.461C127.027 24.1121 126.675 23.7599 126.675 23.3254V19.0506C126.675 18.616 127.027 18.2638 127.461 18.2638H144.389C144.823 18.2638 145.176 17.9115 145.176 17.477V7.12223C145.176 6.6877 144.824 6.33545 144.389 6.33545C143.412 6.33545 142.347 6.33545 141.905 6.33545C141.767 6.33545 141.632 6.37176 141.512 6.44074L115.82 21.2638C115.577 21.4043 115.427 21.6641 115.427 21.9452V50.3981Z" fill="white"/>
<rect x="156.025" y="0.683167" width="58.2303" height="58.2303" rx="1" fill="#004DC0"/>
<path d="M167.443 17.9367C169.038 17.9367 170.397 17.3659 171.52 16.2243C172.662 15.0826 173.233 13.7145 173.233 12.1199C173.233 10.5252 172.662 9.16614 171.52 8.04263C170.397 6.90101 169.038 6.3302 167.443 6.3302C165.848 6.3302 164.48 6.90101 163.339 8.04263C162.215 9.16614 161.653 10.5252 161.653 12.1199C161.653 13.7145 162.215 15.0826 163.339 16.2243C164.48 17.3659 165.848 17.9367 167.443 17.9367ZM162.496 50.4616C162.496 51.1134 163.024 51.6417 163.676 51.6417H171.237C171.889 51.6417 172.417 51.1134 172.417 50.4616V24.9881C172.417 24.3363 171.889 23.8079 171.237 23.8079H163.676C163.024 23.8079 162.496 24.3363 162.496 24.9881V50.4616Z" fill="white"/>
<path d="M187.951 50.4616C187.951 51.1134 188.479 51.6417 189.131 51.6417H197.263C197.914 51.6417 198.443 51.1134 198.443 50.4616V17.187C198.443 16.5352 198.971 16.0068 199.623 16.0068H207.782C208.434 16.0068 208.962 15.4784 208.962 14.8266V7.97245C208.962 7.32066 208.434 6.79228 207.782 6.79228H178.612C177.96 6.79228 177.431 7.32066 177.431 7.97245V14.8266C177.431 15.4784 177.96 16.0068 178.612 16.0068H186.77C187.422 16.0068 187.951 16.5352 187.951 17.187V50.4616Z" fill="white"/>
</g>
<defs>
<filter id="filter0_d_3:176" x="0.744385" y="0.683167" width="216.511" height="78.3168" filterUnits="userSpaceOnUse" color-interpolation-filters="sRGB">
<feFlood flood-opacity="0" result="BackgroundImageFix"/>
<feColorMatrix in="SourceAlpha" type="matrix" values="0 0 0 0 0 0 0 0 0 0 0 0 0 0 0 0 0 0 127 0" result="hardAlpha"/>
<feOffset dx="2" dy="2"/>
<feGaussianBlur stdDeviation="0.5"/>
<feComposite in2="hardAlpha" operator="out"/>
<feColorMatrix type="matrix" values="0 0 0 0 0 0 0 0 0 0 0 0 0 0 0 0 0 0 0.25 0"/>
<feBlend mode="normal" in2="BackgroundImageFix" result="effect1_dropShadow_3:176"/>
<feBlend mode="normal" in="SourceGraphic" in2="effect1_dropShadow_3:176" result="shape"/>
</filter>
</defs>
</svg>
